<?xml version="1.0" encoding="UTF-8"?><svg xmlns="http://www.w3.org/2000/svg" xmlns:xlink="http://www.w3.org/1999/xlink" contentScriptType="text/ecmascript" width="960pt" zoomAndPan="magnify" contentStyleType="text/css" viewBox="0 0 960 599.999999" height="599.999999pt" preserveAspectRatio="xMidYMid meet" version="1.2"><defs><g/></defs><g xml:id="surface1" id="surface1"><g style="fill:rgb(100%,85.488892%,22.749329%);fill-opacity:1;"><g transform="translate(155.55694, 321.961207)"><path style="stroke:none;" d="M 44.375 -40.578125 L 29.96875 -31.15625 C 29 -33.550781 25.769531 -34.75 20.28125 -34.75 C 19.039062 -34.75 17.765625 -33.859375 16.453125 -32.078125 C 15.148438 -30.304688 14.5 -28.304688 14.5 -26.078125 C 14.601562 -24.378906 15.101562 -22.753906 16 -21.203125 C 16.90625 -19.648438 18.503906 -18.820312 20.796875 -18.71875 C 22.515625 -18.71875 24.316406 -19.175781 26.203125 -20.09375 C 28.085938 -21.007812 29.71875 -22.851562 31.09375 -25.625 C 31.175781 -25.445312 32.0625 -24.640625 33.75 -23.203125 C 35.445312 -21.773438 37.179688 -20.34375 38.953125 -18.90625 C 40.722656 -17.46875 42.023438 -16.40625 42.859375 -15.71875 C 41.222656 -11.820312 39.066406 -8.769531 36.390625 -6.5625 C 33.710938 -4.351562 30.90625 -2.835938 27.96875 -2.015625 C 25.03125 -1.203125 22.113281 -0.796875 19.21875 -0.796875 C 15.175781 -0.796875 11.613281 -1.5625 8.53125 -3.09375 C 5.457031 -4.632812 2.929688 -7.265625 0.953125 -10.984375 C -1.015625 -14.703125 -2.210938 -19.734375 -2.640625 -26.078125 C -2.679688 -26.691406 -2.703125 -27.632812 -2.703125 -28.90625 C -2.703125 -32.070312 -2.332031 -35.113281 -1.59375 -38.03125 C -0.851562 -40.945312 0.351562 -43.578125 2.03125 -45.921875 C 3.71875 -48.273438 6.039062 -50.191406 9 -51.671875 C 11.957031 -53.148438 15.535156 -53.921875 19.734375 -53.984375 C 22.523438 -53.984375 25.269531 -53.65625 27.96875 -53 C 30.664062 -52.34375 33.140625 -51.429688 35.390625 -50.265625 C 37.640625 -49.097656 39.570312 -47.671875 41.1875 -45.984375 C 42.8125 -44.304688 43.875 -42.503906 44.375 -40.578125 Z M 44.375 -40.578125 "/></g></g><g style="fill:rgb(100%,85.488892%,22.749329%);fill-opacity:1;"><g transform="translate(193.881892, 321.961207)"><path style="stroke:none;" d="M 37.9375 -31.34375 L 26.59375 -23.953125 C 26.03125 -25.390625 25.28125 -26.613281 24.34375 -27.625 C 23.414062 -28.644531 22.457031 -29.15625 21.46875 -29.15625 C 20.0625 -29.15625 18.875 -28.039062 17.90625 -25.8125 C 16.988281 -23.675781 16.53125 -19.925781 16.53125 -14.5625 C 16.53125 -10.8125 16.722656 -6.394531 17.109375 -1.3125 L 1.3125 0.515625 C 0.394531 -6.109375 -0.0625 -12.015625 -0.0625 -17.203125 C -0.0625 -18.054688 -0.0195312 -19.234375 0.0625 -20.734375 L -0.515625 -39.515625 L 12.125 -41.09375 L 13.953125 -38.96875 C 15.453125 -39.476562 16.835938 -39.914062 18.109375 -40.28125 C 19.390625 -40.644531 20.585938 -40.929688 21.703125 -41.140625 C 22.816406 -41.359375 23.898438 -41.46875 24.953125 -41.46875 C 27.066406 -41.46875 28.929688 -40.988281 30.546875 -40.03125 C 32.578125 -38.894531 34.1875 -37.710938 35.375 -36.484375 C 36.570312 -35.265625 37.425781 -33.550781 37.9375 -31.34375 Z M 37.9375 -31.34375 "/></g></g><g style="fill:rgb(100%,85.488892%,22.749329%);fill-opacity:1;"><g transform="translate(228.895564, 321.961207)"><path style="stroke:none;" d="M 29.640625 -17.78125 L 37.390625 -8.421875 C 36.765625 -6.617188 35.289062 -4.96875 32.96875 -3.46875 C 30.644531 -1.96875 27.878906 -0.785156 24.671875 0.078125 C 21.472656 0.941406 18.273438 1.375 15.078125 1.375 C 12.242188 1.375 9.71875 1 7.5 0.25 C 5.28125 -0.5 3.570312 -1.632812 2.375 -3.15625 C 0.300781 -5.769531 -0.734375 -9.113281 -0.734375 -13.1875 C -0.734375 -16.394531 -0.148438 -19.554688 1.015625 -22.671875 C 2.179688 -25.796875 3.414062 -27.976562 4.71875 -29.21875 C 6.289062 -30.695312 7.992188 -31.929688 9.828125 -32.921875 C 11.660156 -33.910156 13.5625 -34.648438 15.53125 -35.140625 C 17.5 -35.628906 19.523438 -35.875 21.609375 -35.875 C 24.328125 -35.875 26.910156 -35.441406 29.359375 -34.578125 C 31.816406 -33.710938 33.96875 -32.453125 35.8125 -30.796875 L 18.171875 -9.734375 C 19.734375 -9.734375 21.210938 -10.0625 22.609375 -10.71875 C 24.015625 -11.375 25.304688 -12.304688 26.484375 -13.515625 C 27.671875 -14.722656 28.722656 -16.144531 29.640625 -17.78125 Z M 20.734375 -25.265625 C 19.679688 -25.804688 18.609375 -26.078125 17.515625 -26.078125 C 16.359375 -26.078125 15.238281 -25.835938 14.15625 -25.359375 C 13.070312 -24.890625 12.304688 -24.332031 11.859375 -23.6875 C 10.535156 -21.976562 9.875 -20.09375 9.875 -18.03125 C 9.875 -17.28125 9.945312 -16.5625 10.09375 -15.875 C 10.238281 -15.195312 10.492188 -14.253906 10.859375 -13.046875 Z M 20.734375 -25.265625 "/></g></g><g style="fill:rgb(100%,85.488892%,22.749329%);fill-opacity:1;"><g transform="translate(260.6301, 321.961207)"><path style="stroke:none;" d="M 21.34375 -31.46875 C 20.164062 -31.320312 19.003906 -30.945312 17.859375 -30.34375 C 16.710938 -29.75 15.734375 -29.039062 14.921875 -28.21875 C 14.109375 -27.40625 13.46875 -26.507812 13 -25.53125 C 12.539062 -24.5625 12.3125 -23.609375 12.3125 -22.671875 C 12.3125 -20.710938 13.234375 -19.125 15.078125 -17.90625 C 16.703125 -16.8125 18.351562 -16.265625 20.03125 -16.265625 C 20.351562 -16.265625 20.789062 -16.304688 21.34375 -16.390625 L 21.34375 -23.25 C 20.769531 -23.25 20.253906 -23.394531 19.796875 -23.6875 C 19.160156 -24.207031 18.84375 -25.195312 18.84375 -26.65625 C 18.84375 -28.75 19.675781 -30.351562 21.34375 -31.46875 Z M 21.609375 -37.140625 L 35.046875 -43.171875 L 35.296875 -25.203125 C 35.472656 -24.085938 35.5625 -22.820312 35.5625 -21.40625 C 35.5625 -20.164062 35.515625 -19.242188 35.421875 -18.640625 L 35.8125 1.0625 L 21.34375 1.828125 L 21.34375 -0.125 C 18.988281 0.832031 16.609375 1.3125 14.203125 1.3125 C 12.367188 1.3125 10.640625 1.03125 9.015625 0.46875 C 7.398438 -0.0820312 6.003906 -0.828125 4.828125 -1.765625 C 2.921875 -3.347656 1.429688 -5.484375 0.359375 -8.171875 C -0.710938 -10.867188 -1.25 -13.71875 -1.25 -16.71875 C -1.25 -21.882812 0.238281 -26.050781 3.21875 -29.21875 C 5.789062 -31.925781 8.441406 -33.972656 11.171875 -35.359375 C 13.898438 -36.753906 16.691406 -37.453125 19.546875 -37.453125 C 20.335938 -37.453125 20.9375 -37.429688 21.34375 -37.390625 Z M 21.609375 -37.140625 "/></g></g><g style="fill:rgb(100%,85.488892%,22.749329%);fill-opacity:1;"><g transform="translate(292.364642, 321.961207)"><path style="stroke:none;" d="M 6.046875 -56.359375 L 20.09375 -62.6875 L 19.875 -41.09375 L 30.34375 -40.828125 L 30.34375 -28.453125 L 19.484375 -28.328125 C 19.097656 -25.285156 18.90625 -22.421875 18.90625 -19.734375 C 18.90625 -17.503906 19.035156 -15.660156 19.296875 -14.203125 C 19.503906 -13.003906 20.035156 -12.082031 20.890625 -11.4375 C 21.753906 -10.800781 22.753906 -10.484375 23.890625 -10.484375 C 25.148438 -10.484375 26.253906 -10.859375 27.203125 -11.609375 C 28.160156 -12.359375 28.640625 -13.382812 28.640625 -14.6875 C 28.640625 -14.882812 28.597656 -15.257812 28.515625 -15.8125 L 39.03125 -22.671875 C 39.476562 -21.828125 40.039062 -20.421875 40.71875 -18.453125 C 41.394531 -16.484375 41.734375 -14.328125 41.734375 -11.984375 C 41.734375 -9.179688 40.992188 -6.644531 39.515625 -4.375 C 38.035156 -2.101562 35.503906 -0.378906 31.921875 0.796875 C 29.410156 1.617188 27.039062 2.03125 24.8125 2.03125 C 21.445312 2.03125 18.484375 1.289062 15.921875 -0.1875 C 13.367188 -1.664062 11.242188 -3.445312 9.546875 -5.53125 C 8.753906 -6.5 8.140625 -8.09375 7.703125 -10.3125 C 7.265625 -12.539062 6.976562 -14.867188 6.84375 -17.296875 C 6.71875 -19.722656 6.65625 -22.144531 6.65625 -24.5625 L 6.65625 -28.203125 L -2.828125 -27.90625 L -5.203125 -42.40625 L 6.78125 -41.609375 Z M 6.046875 -56.359375 "/></g></g><g style="fill:rgb(100%,85.488892%,22.749329%);fill-opacity:1;"><g transform="translate(332.329163, 321.961207)"><path style="stroke:none;" d="M 29.640625 -17.78125 L 37.390625 -8.421875 C 36.765625 -6.617188 35.289062 -4.96875 32.96875 -3.46875 C 30.644531 -1.96875 27.878906 -0.785156 24.671875 0.078125 C 21.472656 0.941406 18.273438 1.375 15.078125 1.375 C 12.242188 1.375 9.71875 1 7.5 0.25 C 5.28125 -0.5 3.570312 -1.632812 2.375 -3.15625 C 0.300781 -5.769531 -0.734375 -9.113281 -0.734375 -13.1875 C -0.734375 -16.394531 -0.148438 -19.554688 1.015625 -22.671875 C 2.179688 -25.796875 3.414062 -27.976562 4.71875 -29.21875 C 6.289062 -30.695312 7.992188 -31.929688 9.828125 -32.921875 C 11.660156 -33.910156 13.5625 -34.648438 15.53125 -35.140625 C 17.5 -35.628906 19.523438 -35.875 21.609375 -35.875 C 24.328125 -35.875 26.910156 -35.441406 29.359375 -34.578125 C 31.816406 -33.710938 33.96875 -32.453125 35.8125 -30.796875 L 18.171875 -9.734375 C 19.734375 -9.734375 21.210938 -10.0625 22.609375 -10.71875 C 24.015625 -11.375 25.304688 -12.304688 26.484375 -13.515625 C 27.671875 -14.722656 28.722656 -16.144531 29.640625 -17.78125 Z M 20.734375 -25.265625 C 19.679688 -25.804688 18.609375 -26.078125 17.515625 -26.078125 C 16.359375 -26.078125 15.238281 -25.835938 14.15625 -25.359375 C 13.070312 -24.890625 12.304688 -24.332031 11.859375 -23.6875 C 10.535156 -21.976562 9.875 -20.09375 9.875 -18.03125 C 9.875 -17.28125 9.945312 -16.5625 10.09375 -15.875 C 10.238281 -15.195312 10.492188 -14.253906 10.859375 -13.046875 Z M 20.734375 -25.265625 "/></g></g><g style="fill:rgb(100%,85.488892%,22.749329%);fill-opacity:1;"><g transform="translate(364.063694, 321.961207)"><path style="stroke:none;" d=""/></g></g><g style="fill:rgb(100%,85.488892%,22.749329%);fill-opacity:1;"><g transform="translate(395.798236, 321.961207)"><path style="stroke:none;" d="M 13.953125 -37.140625 C 16.328125 -37.929688 18.375 -38.535156 20.09375 -38.953125 C 21.8125 -39.367188 23.453125 -39.578125 25.015625 -39.578125 C 27.109375 -39.578125 28.953125 -39.113281 30.546875 -38.1875 C 32.453125 -37.101562 34.507812 -35.238281 36.71875 -32.59375 C 38.925781 -29.957031 40.296875 -27.515625 40.828125 -25.265625 C 41.960938 -20.703125 42.53125 -16.71875 42.53125 -13.3125 C 42.53125 -11.507812 42.410156 -9.613281 42.171875 -7.625 C 41.941406 -5.644531 41.582031 -3.101562 41.09375 0 L 27.65625 0.796875 C 27.695312 -0.265625 27.71875 -1.804688 27.71875 -3.828125 C 27.71875 -12.222656 26.554688 -19.367188 24.234375 -25.265625 C 23.335938 -27.472656 22.460938 -28.578125 21.609375 -28.578125 C 20.492188 -28.578125 19.257812 -27.035156 17.90625 -23.953125 C 17.582031 -23.203125 17.316406 -22.34375 17.109375 -21.375 C 16.910156 -20.414062 16.765625 -19.332031 16.671875 -18.125 C 16.578125 -16.925781 16.53125 -15.515625 16.53125 -13.890625 C 16.53125 -10.585938 16.722656 -6.394531 17.109375 -1.3125 L 1.3125 0.515625 C 1.0625 -1.367188 0.828125 -3.242188 0.609375 -5.109375 C 0.398438 -6.972656 0.234375 -8.703125 0.109375 -10.296875 C -0.00390625 -11.898438 -0.0625 -13.625 -0.0625 -15.46875 C -0.0625 -16.257812 -0.0195312 -17.40625 0.0625 -18.90625 L -0.515625 -37.640625 L 12.125 -39.25 Z M 13.953125 -37.140625 "/></g></g><g style="fill:rgb(100%,85.488892%,22.749329%);fill-opacity:1;"><g transform="translate(434.12319, 321.961207)"><path style="stroke:none;" d="M 29.640625 -17.78125 L 37.390625 -8.421875 C 36.765625 -6.617188 35.289062 -4.96875 32.96875 -3.46875 C 30.644531 -1.96875 27.878906 -0.785156 24.671875 0.078125 C 21.472656 0.941406 18.273438 1.375 15.078125 1.375 C 12.242188 1.375 9.71875 1 7.5 0.25 C 5.28125 -0.5 3.570312 -1.632812 2.375 -3.15625 C 0.300781 -5.769531 -0.734375 -9.113281 -0.734375 -13.1875 C -0.734375 -16.394531 -0.148438 -19.554688 1.015625 -22.671875 C 2.179688 -25.796875 3.414062 -27.976562 4.71875 -29.21875 C 6.289062 -30.695312 7.992188 -31.929688 9.828125 -32.921875 C 11.660156 -33.910156 13.5625 -34.648438 15.53125 -35.140625 C 17.5 -35.628906 19.523438 -35.875 21.609375 -35.875 C 24.328125 -35.875 26.910156 -35.441406 29.359375 -34.578125 C 31.816406 -33.710938 33.96875 -32.453125 35.8125 -30.796875 L 18.171875 -9.734375 C 19.734375 -9.734375 21.210938 -10.0625 22.609375 -10.71875 C 24.015625 -11.375 25.304688 -12.304688 26.484375 -13.515625 C 27.671875 -14.722656 28.722656 -16.144531 29.640625 -17.78125 Z M 20.734375 -25.265625 C 19.679688 -25.804688 18.609375 -26.078125 17.515625 -26.078125 C 16.359375 -26.078125 15.238281 -25.835938 14.15625 -25.359375 C 13.070312 -24.890625 12.304688 -24.332031 11.859375 -23.6875 C 10.535156 -21.976562 9.875 -20.09375 9.875 -18.03125 C 9.875 -17.28125 9.945312 -16.5625 10.09375 -15.875 C 10.238281 -15.195312 10.492188 -14.253906 10.859375 -13.046875 Z M 20.734375 -25.265625 "/></g></g><g style="fill:rgb(100%,85.488892%,22.749329%);fill-opacity:1;"><g transform="translate(465.857732, 321.961207)"><path style="stroke:none;" d="M 35.046875 -10 L 28.96875 3.703125 L 13.953125 3.953125 L -3.40625 -40.28125 L 14.203125 -39.515625 L 21.859375 -19.21875 L 26.390625 -31.46875 L 22.921875 -40.28125 L 40.578125 -39.515625 L 48.1875 -19.21875 L 55.84375 -38.96875 L 72.171875 -37.390625 L 55.59375 4.46875 L 40.28125 3.953125 Z M 35.046875 -10 "/></g></g><g style="fill:rgb(100%,85.488892%,22.749329%);fill-opacity:1;"><g transform="translate(530.51217, 321.961207)"><path style="stroke:none;" d=""/></g></g><g style="fill:rgb(100%,85.488892%,22.749329%);fill-opacity:1;"><g transform="translate(562.246712, 321.961207)"><path style="stroke:none;" d="M 20.546875 -59.25 L 52.140625 16.84375 L 38.703125 18.171875 L 23.6875 -16.84375 L 15.265625 -18.171875 L 2.125 9.734375 L -14.5 10.546875 Z M 15.8125 -25.8125 L 23.4375 -24.75 L 20.28125 -37.140625 Z M 15.8125 -25.8125 "/></g></g><g style="fill:rgb(100%,85.488892%,22.749329%);fill-opacity:1;"><g transform="translate(597.260386, 321.961207)"><path style="stroke:none;" d="M 27.84375 -38.1875 C 29.21875 -37.3125 30.457031 -36.097656 31.5625 -34.546875 C 32.664062 -32.992188 33.515625 -31.554688 34.109375 -30.234375 C 34.710938 -28.921875 35.109375 -27.972656 35.296875 -27.390625 L 23.375 -24.75 C 23.175781 -25.820312 22.601562 -26.53125 21.65625 -26.875 C 20.71875 -27.21875 19.738281 -27.390625 18.71875 -27.390625 C 13.269531 -26.878906 10.546875 -23.632812 10.546875 -17.65625 C 10.691406 -12.914062 12.179688 -10.273438 15.015625 -9.734375 C 16.367188 -9.734375 17.585938 -10.066406 18.671875 -10.734375 C 19.765625 -11.398438 20.703125 -12.285156 21.484375 -13.390625 C 22.273438 -14.492188 22.925781 -15.734375 23.4375 -17.109375 L 35.359375 -14.6875 C 35.234375 -14.257812 34.925781 -13.40625 34.4375 -12.125 C 33.875 -10.6875 32.566406 -8.765625 30.515625 -6.359375 C 28.472656 -3.960938 26.195312 -2.28125 23.6875 -1.3125 C 20.664062 -0.132812 17.664062 0.453125 14.6875 0.453125 C 9.9375 0.453125 5.71875 -1.101562 2.03125 -4.21875 C 0.351562 -5.664062 -0.863281 -7.351562 -1.625 -9.28125 C -2.382812 -11.21875 -2.765625 -13.257812 -2.765625 -15.40625 C -2.765625 -17.632812 -2.453125 -19.828125 -1.828125 -21.984375 C -1.210938 -24.148438 -0.453125 -26.125 0.453125 -27.90625 C 1.628906 -30.21875 2.925781 -32.191406 4.34375 -33.828125 C 5.757812 -35.472656 7.242188 -36.816406 8.796875 -37.859375 C 10.347656 -38.898438 11.9375 -39.664062 13.5625 -40.15625 C 15.195312 -40.644531 16.835938 -40.890625 18.484375 -40.890625 C 21.867188 -40.890625 24.988281 -39.988281 27.84375 -38.1875 Z M 27.84375 -38.1875 "/></g></g><g style="fill:rgb(100%,85.488892%,22.749329%);fill-opacity:1;"><g transform="translate(628.994928, 321.961207)"><path style="stroke:none;" d="M 27.84375 -38.1875 C 29.21875 -37.3125 30.457031 -36.097656 31.5625 -34.546875 C 32.664062 -32.992188 33.515625 -31.554688 34.109375 -30.234375 C 34.710938 -28.921875 35.109375 -27.972656 35.296875 -27.390625 L 23.375 -24.75 C 23.175781 -25.820312 22.601562 -26.53125 21.65625 -26.875 C 20.71875 -27.21875 19.738281 -27.390625 18.71875 -27.390625 C 13.269531 -26.878906 10.546875 -23.632812 10.546875 -17.65625 C 10.691406 -12.914062 12.179688 -10.273438 15.015625 -9.734375 C 16.367188 -9.734375 17.585938 -10.066406 18.671875 -10.734375 C 19.765625 -11.398438 20.703125 -12.285156 21.484375 -13.390625 C 22.273438 -14.492188 22.925781 -15.734375 23.4375 -17.109375 L 35.359375 -14.6875 C 35.234375 -14.257812 34.925781 -13.40625 34.4375 -12.125 C 33.875 -10.6875 32.566406 -8.765625 30.515625 -6.359375 C 28.472656 -3.960938 26.195312 -2.28125 23.6875 -1.3125 C 20.664062 -0.132812 17.664062 0.453125 14.6875 0.453125 C 9.9375 0.453125 5.71875 -1.101562 2.03125 -4.21875 C 0.351562 -5.664062 -0.863281 -7.351562 -1.625 -9.28125 C -2.382812 -11.21875 -2.765625 -13.257812 -2.765625 -15.40625 C -2.765625 -17.632812 -2.453125 -19.828125 -1.828125 -21.984375 C -1.210938 -24.148438 -0.453125 -26.125 0.453125 -27.90625 C 1.628906 -30.21875 2.925781 -32.191406 4.34375 -33.828125 C 5.757812 -35.472656 7.242188 -36.816406 8.796875 -37.859375 C 10.347656 -38.898438 11.9375 -39.664062 13.5625 -40.15625 C 15.195312 -40.644531 16.835938 -40.890625 18.484375 -40.890625 C 21.867188 -40.890625 24.988281 -39.988281 27.84375 -38.1875 Z M 27.84375 -38.1875 "/></g></g><g style="fill:rgb(100%,85.488892%,22.749329%);fill-opacity:1;"><g transform="translate(660.72947, 321.961207)"><path style="stroke:none;" d="M 29.15625 -34.8125 C 30.675781 -34 31.910156 -32.898438 32.859375 -31.515625 C 33.816406 -30.140625 34.515625 -28.585938 34.953125 -26.859375 C 35.398438 -25.140625 35.625 -23.34375 35.625 -21.46875 C 35.625 -19.925781 35.5 -18.4375 35.25 -17 C 35.007812 -15.570312 34.671875 -14.253906 34.234375 -13.046875 C 33.804688 -11.847656 33.304688 -10.832031 32.734375 -10 C 31.378906 -7.988281 29.929688 -6.253906 28.390625 -4.796875 C 26.847656 -3.335938 25.269531 -2.160156 23.65625 -1.265625 C 22.050781 -0.378906 20.460938 0.269531 18.890625 0.6875 C 17.316406 1.101562 15.753906 1.3125 14.203125 1.3125 C 12.390625 1.3125 10.660156 1.023438 9.015625 0.453125 C 7.378906 -0.109375 5.984375 -0.847656 4.828125 -1.765625 C 2.921875 -3.347656 1.429688 -5.484375 0.359375 -8.171875 C -0.710938 -10.867188 -1.25 -13.71875 -1.25 -16.71875 C -1.25 -21.882812 0.238281 -26.050781 3.21875 -29.21875 C 5.769531 -31.945312 8.40625 -34 11.125 -35.375 C 13.84375 -36.757812 16.628906 -37.453125 19.484375 -37.453125 C 21.148438 -37.453125 22.753906 -37.242188 24.296875 -36.828125 C 25.847656 -36.410156 27.46875 -35.738281 29.15625 -34.8125 Z M 27.265625 -29.421875 C 26.898438 -27.785156 26.109375 -26.347656 24.890625 -25.109375 C 23.679688 -23.867188 22.5 -23.25 21.34375 -23.25 C 20.769531 -23.25 20.253906 -23.394531 19.796875 -23.6875 C 19.160156 -24.207031 18.84375 -25.109375 18.84375 -26.390625 C 18.84375 -27.378906 19.164062 -28.351562 19.8125 -29.3125 C 20.46875 -30.28125 21.503906 -31.046875 22.921875 -31.609375 C 21.503906 -31.609375 20.132812 -31.335938 18.8125 -30.796875 C 17.5 -30.265625 16.367188 -29.570312 15.421875 -28.71875 C 14.484375 -27.875 13.726562 -26.921875 13.15625 -25.859375 C 12.59375 -24.804688 12.3125 -23.742188 12.3125 -22.671875 C 12.3125 -20.671875 13.234375 -19.082031 15.078125 -17.90625 C 16.796875 -16.8125 18.425781 -16.265625 19.96875 -16.265625 C 21.488281 -16.265625 22.835938 -16.773438 24.015625 -17.796875 C 25.191406 -18.816406 26.09375 -20.125 26.71875 -21.71875 C 27.34375 -23.3125 27.65625 -24.890625 27.65625 -26.453125 C 27.65625 -27.523438 27.523438 -28.515625 27.265625 -29.421875 Z M 27.265625 -29.421875 "/></g></g><g style="fill:rgb(100%,85.488892%,22.749329%);fill-opacity:1;"><g transform="translate(692.464012, 321.961207)"><path style="stroke:none;" d="M 1.3125 -40.03125 L 17.109375 -38.1875 C 16.722656 -33.113281 16.53125 -28.925781 16.53125 -25.625 C 16.53125 -23.96875 16.578125 -22.539062 16.671875 -21.34375 C 16.765625 -20.144531 16.914062 -19.050781 17.125 -18.0625 C 17.34375 -17.082031 17.601562 -16.238281 17.90625 -15.53125 C 19.257812 -12.46875 20.492188 -10.9375 21.609375 -10.9375 C 22.460938 -10.9375 23.335938 -12.023438 24.234375 -14.203125 C 24.835938 -15.734375 25.375 -17.226562 25.84375 -18.6875 C 26.320312 -20.15625 26.6875 -21.554688 26.9375 -22.890625 C 27.195312 -24.222656 27.390625 -25.679688 27.515625 -27.265625 C 27.648438 -28.847656 27.71875 -30.582031 27.71875 -32.46875 C 27.71875 -34.351562 27.695312 -35.820312 27.65625 -36.875 L 41.09375 -36.078125 C 41.800781 -31.640625 42.21875 -28.960938 42.34375 -28.046875 C 42.46875 -27.140625 42.53125 -26 42.53125 -24.625 C 42.53125 -22.289062 41.960938 -18.816406 40.828125 -14.203125 C 40.273438 -11.867188 39.039062 -9.414062 37.125 -6.84375 C 35.21875 -4.269531 33.378906 -2.472656 31.609375 -1.453125 C 28.816406 0.140625 25.566406 0.9375 21.859375 0.9375 C 19.285156 0.9375 16.78125 0.570312 14.34375 -0.15625 C 11.914062 -0.882812 9.6875 -1.96875 7.65625 -3.40625 C 5.75 -4.738281 4.21875 -6.472656 3.0625 -8.609375 C 1.914062 -10.753906 1.117188 -13.09375 0.671875 -15.625 C 0.222656 -18.15625 0 -20.960938 0 -24.046875 C 0 -25.890625 0.0546875 -27.664062 0.171875 -29.375 C 0.296875 -31.09375 0.453125 -32.847656 0.640625 -34.640625 C 0.835938 -36.429688 1.0625 -38.226562 1.3125 -40.03125 Z M 1.3125 -40.03125 "/></g></g><g style="fill:rgb(100%,85.488892%,22.749329%);fill-opacity:1;"><g transform="translate(730.788946, 321.961207)"><path style="stroke:none;" d="M 13.953125 -37.140625 C 16.328125 -37.929688 18.375 -38.535156 20.09375 -38.953125 C 21.8125 -39.367188 23.453125 -39.578125 25.015625 -39.578125 C 27.109375 -39.578125 28.953125 -39.113281 30.546875 -38.1875 C 32.453125 -37.101562 34.507812 -35.238281 36.71875 -32.59375 C 38.925781 -29.957031 40.296875 -27.515625 40.828125 -25.265625 C 41.960938 -20.703125 42.53125 -16.71875 42.53125 -13.3125 C 42.53125 -11.507812 42.410156 -9.613281 42.171875 -7.625 C 41.941406 -5.644531 41.582031 -3.101562 41.09375 0 L 27.65625 0.796875 C 27.695312 -0.265625 27.71875 -1.804688 27.71875 -3.828125 C 27.71875 -12.222656 26.554688 -19.367188 24.234375 -25.265625 C 23.335938 -27.472656 22.460938 -28.578125 21.609375 -28.578125 C 20.492188 -28.578125 19.257812 -27.035156 17.90625 -23.953125 C 17.582031 -23.203125 17.316406 -22.34375 17.109375 -21.375 C 16.910156 -20.414062 16.765625 -19.332031 16.671875 -18.125 C 16.578125 -16.925781 16.53125 -15.515625 16.53125 -13.890625 C 16.53125 -10.585938 16.722656 -6.394531 17.109375 -1.3125 L 1.3125 0.515625 C 1.0625 -1.367188 0.828125 -3.242188 0.609375 -5.109375 C 0.398438 -6.972656 0.234375 -8.703125 0.109375 -10.296875 C -0.00390625 -11.898438 -0.0625 -13.625 -0.0625 -15.46875 C -0.0625 -16.257812 -0.0195312 -17.40625 0.0625 -18.90625 L -0.515625 -37.640625 L 12.125 -39.25 Z M 13.953125 -37.140625 "/></g></g><g style="fill:rgb(100%,85.488892%,22.749329%);fill-opacity:1;"><g transform="translate(769.113879, 321.961207)"><path style="stroke:none;" d="M 6.046875 -56.359375 L 20.09375 -62.6875 L 19.875 -41.09375 L 30.34375 -40.828125 L 30.34375 -28.453125 L 19.484375 -28.328125 C 19.097656 -25.285156 18.90625 -22.421875 18.90625 -19.734375 C 18.90625 -17.503906 19.035156 -15.660156 19.296875 -14.203125 C 19.503906 -13.003906 20.035156 -12.082031 20.890625 -11.4375 C 21.753906 -10.800781 22.753906 -10.484375 23.890625 -10.484375 C 25.148438 -10.484375 26.253906 -10.859375 27.203125 -11.609375 C 28.160156 -12.359375 28.640625 -13.382812 28.640625 -14.6875 C 28.640625 -14.882812 28.597656 -15.257812 28.515625 -15.8125 L 39.03125 -22.671875 C 39.476562 -21.828125 40.039062 -20.421875 40.71875 -18.453125 C 41.394531 -16.484375 41.734375 -14.328125 41.734375 -11.984375 C 41.734375 -9.179688 40.992188 -6.644531 39.515625 -4.375 C 38.035156 -2.101562 35.503906 -0.378906 31.921875 0.796875 C 29.410156 1.617188 27.039062 2.03125 24.8125 2.03125 C 21.445312 2.03125 18.484375 1.289062 15.921875 -0.1875 C 13.367188 -1.664062 11.242188 -3.445312 9.546875 -5.53125 C 8.753906 -6.5 8.140625 -8.09375 7.703125 -10.3125 C 7.265625 -12.539062 6.976562 -14.867188 6.84375 -17.296875 C 6.71875 -19.722656 6.65625 -22.144531 6.65625 -24.5625 L 6.65625 -28.203125 L -2.828125 -27.90625 L -5.203125 -42.40625 L 6.78125 -41.609375 Z M 6.046875 -56.359375 "/></g></g><path style="fill:none;stroke-width:1.749998;stroke-linecap:butt;stroke-linejoin:miter;stroke:rgb(0%,36.859131%,100%);stroke-opacity:1;stroke-miterlimit:4;" d="M 31.769489 8.247757 L 21.560752 14.924404 C 20.8798 13.222026 18.593353 12.37222 14.704178 12.37222 C 13.823924 12.37222 12.918756 13.000578 11.994212 14.26283 C 11.0669 15.522313 10.604628 16.942346 10.604628 18.522929 C 10.679367 19.721515 11.036451 20.873042 11.673113 21.974745 C 12.312543 23.076447 13.444695 23.663283 15.069567 23.74079 C 16.284761 23.74079 17.560853 23.414154 18.895075 22.760884 C 20.232066 22.107613 21.386362 20.801072 22.360731 18.84126 C 22.418861 18.963056 23.049987 19.533284 24.251341 20.549175 C 25.449926 21.567835 26.676193 22.586494 27.93014 23.602385 C 29.184088 24.621044 30.105864 25.373966 30.698236 25.858383 C 29.54394 28.623711 28.015951 30.788362 26.119806 32.352336 C 24.220892 33.91631 22.230631 34.987563 20.149023 35.563327 C 18.067415 36.141859 16.002415 36.429741 13.951256 36.429741 C 11.080741 36.429741 8.556237 35.887194 6.377746 34.802101 C 4.196486 33.714239 2.408297 31.854079 1.010408 29.218851 C -0.384712 26.583624 -1.237286 23.018317 -1.539008 18.522929 C -1.569457 18.082802 -1.586066 17.412923 -1.586066 16.518828 C -1.586066 14.271134 -1.323097 12.112019 -0.799927 10.04702 C -0.276756 7.98202 0.581353 6.116323 1.774403 4.455466 C 2.967452 2.79184 4.611701 1.435473 6.707149 0.386365 C 8.802598 -0.659975 11.340942 -1.208058 14.316645 -1.252348 C 16.290297 -1.252348 18.236269 -1.022596 20.149023 -0.557556 C 22.064545 -0.0952836 23.81675 0.549683 25.411173 1.377343 C 27.008364 2.205004 28.378572 3.215359 29.524563 4.408408 C 30.670555 5.601458 31.420709 6.880318 31.769489 8.247757 Z M 54.370992 14.786 L 46.326905 20.026005 C 45.933836 19.010114 45.405129 18.138164 44.743554 17.418459 C 44.084748 16.695986 43.403796 16.336133 42.706236 16.336133 C 41.704185 16.336133 40.859916 17.125041 40.176196 18.705623 C 39.522926 20.225308 39.19629 22.88268 39.19629 26.680508 C 39.19629 29.33788 39.334695 32.465828 39.605969 36.067121 L 28.420093 37.365358 C 27.766823 32.670667 27.440187 28.485306 27.440187 24.812043 C 27.440187 24.203062 27.470636 23.367097 27.531534 22.304148 L 27.121856 9.000679 L 36.076646 7.882369 L 37.374883 9.385445 C 38.437832 9.022824 39.420506 8.710029 40.325673 8.452596 C 41.228073 8.195163 42.07511 7.990324 42.864017 7.838079 C 43.655693 7.685834 44.422455 7.608327 45.167073 7.608327 C 46.670149 7.608327 47.990531 7.951571 49.130986 8.635291 C 50.573164 9.440807 51.716388 10.274003 52.560657 11.140417 C 53.402158 12.006831 54.005603 13.222026 54.370992 14.786 Z M 73.304767 24.399597 L 78.793901 31.031954 C 78.353774 32.305278 77.310202 33.476183 75.663185 34.539132 C 74.0134 35.60208 72.056356 36.440814 69.783749 37.058099 C 67.513911 37.672616 65.24684 37.979875 62.982538 37.979875 C 60.978437 37.979875 59.190247 37.714138 57.617968 37.182663 C 56.04569 36.651189 54.836032 35.845673 53.983458 34.766116 C 52.510831 32.914259 51.774518 30.544769 51.774518 27.657645 C 51.774518 25.379503 52.186964 23.137345 53.014625 20.925636 C 53.845054 18.716696 54.719772 17.172098 55.647084 16.289076 C 56.75709 15.242736 57.961212 14.368017 59.259449 13.670457 C 60.557686 12.970129 61.905749 12.446959 63.303637 12.098179 C 64.698757 11.749399 66.135399 11.575009 67.608026 11.575009 C 69.537389 11.575009 71.372637 11.882267 73.111001 12.496784 C 74.849365 13.111302 76.371818 14.005397 77.678359 15.173533 L 65.172102 30.096338 C 66.27934 30.096338 67.331217 29.863818 68.324963 29.401546 C 69.321477 28.939274 70.234949 28.277699 71.070914 27.419589 C 71.906879 26.561479 72.651497 25.553893 73.304767 24.399597 Z M 66.993509 19.093157 C 66.248891 18.713928 65.490433 18.522929 64.715366 18.522929 C 63.89601 18.522929 63.101566 18.689015 62.334804 19.023954 C 61.568041 19.358894 61.025494 19.751964 60.704395 20.208699 C 59.763243 21.423894 59.292666 22.760884 59.292666 24.21967 C 59.292666 24.751145 59.34526 25.257706 59.453216 25.744891 C 59.558403 26.232076 59.741098 26.899187 59.998531 27.748993 Z M 89.913343 14.694653 C 89.080146 14.802608 88.255253 15.068345 87.441433 15.491864 C 86.630381 15.918151 85.935589 16.419176 85.357057 16.997708 C 84.781293 17.573472 84.330093 18.207366 84.003458 18.89939 C 83.676823 19.588646 83.513505 20.269598 83.513505 20.936709 C 83.513505 22.320757 84.166776 23.444604 85.470549 24.311018 C 86.624845 25.083316 87.795749 25.47085 88.980494 25.47085 C 89.207478 25.47085 89.520273 25.440401 89.913343 25.379503 L 89.913343 20.52703 C 89.503664 20.52703 89.141044 20.421843 88.819945 20.208699 C 88.365977 19.843311 88.136225 19.145751 88.136225 18.113251 C 88.136225 16.624015 88.728597 15.486328 89.913343 14.694653 Z M 90.096037 10.68645 L 99.621055 6.401437 L 99.800981 19.137446 C 99.922777 19.929122 99.983675 20.823217 99.983675 21.825267 C 99.983675 22.70829 99.953226 23.361561 99.892328 23.785079 L 100.16637 37.752891 L 89.913343 38.298206 L 89.913343 36.908622 C 88.244181 37.592341 86.55841 37.932817 84.856031 37.932817 C 83.54949 37.932817 82.323224 37.736282 81.177232 37.340445 C 80.03124 36.947375 79.040262 36.415901 78.204297 35.746021 C 76.850698 34.622175 75.796054 33.108026 75.037595 31.200808 C 74.276369 29.296358 73.89714 27.278416 73.89714 25.152519 C 73.89714 21.493096 74.954553 18.53677 77.063842 16.289076 C 78.888017 14.376322 80.767554 12.925839 82.702453 11.937629 C 84.64012 10.952187 86.619308 10.456698 88.63725 10.456698 C 89.201942 10.456698 89.625461 10.473306 89.913343 10.503755 Z M 101.558722 -2.938118 L 111.512794 -7.427969 L 111.355013 7.882369 L 118.781814 8.065063 L 118.781814 16.837159 L 111.080971 16.928506 C 110.80693 19.084853 110.671293 21.113867 110.671293 23.010012 C 110.671293 24.590595 110.76264 25.897136 110.945335 26.929636 C 111.09758 27.779442 111.476809 28.432712 112.083022 28.889448 C 112.692003 29.346184 113.397868 29.573168 114.203384 29.573168 C 115.097479 29.573168 115.883618 29.307431 116.561801 28.775956 C 117.237217 28.244482 117.574924 27.513704 117.574924 26.58916 C 117.574924 26.450756 117.544475 26.185018 117.483577 25.791949 L 124.932523 20.936709 C 125.253622 21.529081 125.652228 22.525596 126.128341 23.923484 C 126.607221 25.318604 126.848045 26.846593 126.848045 28.501915 C 126.848045 30.492176 126.322107 32.291438 125.275767 33.90247 C 124.226659 35.510733 122.435701 36.734232 119.897357 37.570197 C 118.120239 38.145961 116.442773 38.436611 114.86219 38.436611 C 112.47886 38.436611 110.377875 37.910672 108.564772 36.864332 C 106.748901 35.815224 105.240289 34.55574 104.041704 33.080345 C 103.47978 32.396625 103.042421 31.267242 102.732394 29.68666 C 102.4196 28.106077 102.217529 26.45906 102.126181 24.74284 C 102.034834 23.026621 101.990545 21.310402 101.990545 19.594182 L 101.990545 17.019853 L 95.269608 17.224692 L 93.583838 6.94952 L 102.081892 7.519748 Z M 146.601177 24.399597 L 152.090312 31.031954 C 151.650184 32.305278 150.606612 33.476183 148.959595 34.539132 C 147.30981 35.60208 145.352766 36.440814 143.08016 37.058099 C 140.810321 37.672616 138.54325 37.979875 136.278948 37.979875 C 134.274847 37.979875 132.486657 37.714138 130.914378 37.182663 C 129.3421 36.651189 128.132442 35.845673 127.279868 34.766116 C 125.807241 32.914259 125.070928 30.544769 125.070928 27.657645 C 125.070928 25.379503 125.483374 23.137345 126.311035 20.925636 C 127.141464 18.716696 128.016182 17.172098 128.943494 16.289076 C 130.0535 15.242736 131.257622 14.368017 132.555859 13.670457 C 133.854096 12.970129 135.202159 12.446959 136.600047 12.098179 C 137.995167 11.749399 139.431809 11.575009 140.904436 11.575009 C 142.833799 11.575009 144.669047 11.882267 146.407411 12.496784 C 148.145775 13.111302 149.668228 14.005397 150.974769 15.173533 L 138.468512 30.096338 C 139.57575 30.096338 140.627627 29.863818 141.621373 29.401546 C 142.617888 28.939274 143.531359 28.277699 144.367324 27.419589 C 145.203289 26.561479 145.947907 25.553893 146.601177 24.399597 Z M 140.289919 19.093157 C 139.545301 18.713928 138.786843 18.522929 138.011776 18.522929 C 137.19242 18.522929 136.397976 18.689015 135.631214 19.023954 C 134.864451 19.358894 134.321904 19.751964 134.000805 20.208699 C 133.059653 21.423894 132.589076 22.760884 132.589076 24.21967 C 132.589076 24.751145 132.64167 25.257706 132.749626 25.744891 C 132.854813 26.232076 133.037508 26.899187 133.294941 27.748993 Z M 180.457758 10.68645 C 182.143528 10.124526 183.59401 9.695471 184.809204 9.399285 C 186.024399 9.103099 187.186999 8.953622 188.297005 8.953622 C 189.783473 8.953622 191.090014 9.280257 192.213861 9.933528 C 193.56746 10.708595 195.026246 12.028976 196.59022 13.897441 C 198.154195 15.765906 199.125796 17.498734 199.505025 19.093157 C 200.310541 22.326293 200.711915 25.152519 200.711915 27.569066 C 200.711915 28.84239 200.628872 30.184917 200.462786 31.588342 C 200.296701 32.994534 200.0365 34.796565 199.68772 36.999969 L 190.16547 37.570197 C 190.195919 36.80897 190.209759 35.715572 190.209759 34.290003 C 190.209759 28.335829 189.390403 23.270213 187.748922 19.093157 C 187.11226 17.529183 186.489439 16.745812 185.880458 16.745812 C 185.09155 16.745812 184.216832 17.839209 183.261839 20.026005 C 183.032087 20.55748 182.846624 21.166461 182.702684 21.85018 C 182.558743 22.5339 182.453555 23.300663 182.384352 24.150468 C 182.31515 25.000273 182.281933 26.002324 182.281933 27.15662 C 182.281933 29.495661 182.41757 32.465828 182.691611 36.067121 L 171.505736 37.365358 C 171.323041 36.028367 171.156956 34.699681 171.00471 33.376531 C 170.852465 32.05615 170.733437 30.829883 170.650394 29.697732 C 170.567351 28.565581 170.52583 27.347619 170.52583 26.041077 C 170.52583 25.479154 170.556279 24.665334 170.617177 23.602385 L 170.207499 10.321061 L 179.159521 9.180606 Z M 218.734987 24.399597 L 224.226889 31.031954 C 223.786762 32.305278 222.740422 33.476183 221.093405 34.539132 C 219.446388 35.60208 217.486576 36.440814 215.213969 37.058099 C 212.944131 37.672616 210.67706 37.979875 208.415526 37.979875 C 206.408656 37.979875 204.620466 37.714138 203.048188 37.182663 C 201.47591 36.651189 200.266252 35.845673 199.416446 34.766116 C 197.941051 32.914259 197.204738 30.544769 197.204738 27.657645 C 197.204738 25.379503 197.619952 23.137345 198.447613 20.925636 C 199.275273 18.716696 200.15276 17.172098 201.077304 16.289076 C 202.18731 15.242736 203.391432 14.368017 204.689669 13.670457 C 205.987906 12.970129 207.335968 12.446959 208.733857 12.098179 C 210.131745 11.749399 211.565619 11.575009 213.038246 11.575009 C 214.967609 11.575009 216.802856 11.882267 218.54122 12.496784 C 220.279585 13.111302 221.804805 14.005397 223.108579 15.173533 L 210.602322 30.096338 C 211.70956 30.096338 212.761436 29.863818 213.757951 29.401546 C 214.751697 28.939274 215.667937 28.277699 216.503902 27.419589 C 217.337099 26.561479 218.081717 25.553893 218.734987 24.399597 Z M 212.423729 19.093157 C 211.679111 18.713928 210.920653 18.522929 210.145586 18.522929 C 209.326229 18.522929 208.531786 18.689015 207.765023 19.023954 C 206.998261 19.358894 206.455714 19.751964 206.137383 20.208699 C 205.193462 21.423894 204.722886 22.760884 204.722886 24.21967 C 204.722886 24.751145 204.77548 25.257706 204.883436 25.744891 C 204.988623 26.232076 205.171318 26.899187 205.42875 27.748993 Z M 245.051274 29.913644 L 240.744117 39.621356 L 230.106325 39.801282 L 217.802139 8.452596 L 230.286251 9.000679 L 235.708951 23.375401 L 238.92271 14.694653 L 236.461873 8.452596 L 248.970898 9.000679 L 254.368685 23.375401 L 259.791385 9.385445 L 271.364794 10.503755 L 259.608691 40.166671 L 248.766059 39.801282 Z M 303.078868 -4.989277 L 325.475531 48.938766 L 315.953282 49.871615 L 305.312721 25.061171 L 299.344706 24.128323 L 290.024528 43.9036 L 278.24628 44.473828 Z M 299.73224 18.705623 L 305.130027 19.455777 L 302.898942 10.68645 Z M 333.062882 9.933528 C 334.037252 10.556349 334.91197 11.417227 335.695341 12.518929 C 336.478712 13.620631 337.082157 14.639291 337.505676 15.572139 C 337.931963 16.507755 338.21154 17.177635 338.349945 17.590081 L 329.89618 19.455777 C 329.760544 18.697319 329.356402 18.196294 328.689291 17.952701 C 328.022179 17.709109 327.321851 17.590081 326.593842 17.590081 C 322.735116 17.952701 320.805754 20.252989 320.805754 24.490944 C 320.913709 27.848644 321.968354 29.717109 323.972455 30.096338 C 324.930216 30.096338 325.79663 29.86105 326.571697 29.390473 C 327.343996 28.919897 328.011107 28.294307 328.564726 27.510936 C 329.118345 26.727565 329.577849 25.850079 329.943238 24.878477 L 338.394235 26.58916 C 338.302887 26.890883 338.084208 27.499864 337.735428 28.410567 C 337.33959 29.429227 336.417814 30.788362 334.967332 32.487973 C 333.51685 34.190352 331.90305 35.383401 330.125932 36.067121 C 327.983426 36.900317 325.857528 37.3183 323.745471 37.3183 C 320.373931 37.3183 317.381619 36.216598 314.768537 34.015962 C 313.583791 32.983462 312.722914 31.782108 312.183135 30.414669 C 311.643356 29.049998 311.374851 27.605052 311.374851 26.088135 C 311.374851 24.507552 311.593531 22.949114 312.033658 21.415589 C 312.476553 19.882064 313.013564 18.484176 313.652994 17.224692 C 314.488959 15.583211 315.407967 14.182555 316.410017 13.019955 C 317.412068 11.857354 318.463944 10.910666 319.565647 10.171584 C 320.664581 9.43527 321.793964 8.892724 322.94826 8.543944 C 324.102556 8.195163 325.265156 8.020773 326.433292 8.020773 C 328.833232 8.020773 331.04494 8.657435 333.062882 9.933528 Z M 355.550893 9.933528 C 356.525262 10.556349 357.399981 11.417227 358.183352 12.518929 C 358.966723 13.620631 359.570168 14.639291 359.993687 15.572139 C 360.419973 16.507755 360.702319 17.177635 360.837956 17.590081 L 352.384191 19.455777 C 352.248554 18.697319 351.84718 18.196294 351.177301 17.952701 C 350.51019 17.709109 349.809862 17.590081 349.081853 17.590081 C 345.223127 17.952701 343.293764 20.252989 343.293764 24.490944 C 343.40172 27.848644 344.456364 29.717109 346.460466 30.096338 C 347.418227 30.096338 348.284641 29.86105 349.059708 29.390473 C 349.832007 28.919897 350.499118 28.294307 351.052737 27.510936 C 351.606356 26.727565 352.06586 25.850079 352.431249 24.878477 L 360.882245 26.58916 C 360.790898 26.890883 360.572219 27.499864 360.223438 28.410567 C 359.827601 29.429227 358.905825 30.788362 357.455343 32.487973 C 356.00486 34.190352 354.391061 35.383401 352.613943 36.067121 C 350.471437 36.900317 348.345539 37.3183 346.233482 37.3183 C 342.861941 37.3183 339.86963 36.216598 337.256547 34.015962 C 336.071802 32.983462 335.210924 31.782108 334.671146 30.414669 C 334.131367 29.049998 333.862862 27.605052 333.862862 26.088135 C 333.862862 24.507552 334.081541 22.949114 334.521668 21.415589 C 334.964564 19.882064 335.501574 18.484176 336.141005 17.224692 C 336.97697 15.583211 337.895977 14.182555 338.898028 13.019955 C 339.900079 11.857354 340.951955 10.910666 342.053657 10.171584 C 343.155359 9.43527 344.281974 8.892724 345.43627 8.543944 C 346.590566 8.195163 347.753167 8.020773 348.921303 8.020773 C 351.321242 8.020773 353.532951 8.657435 355.550893 9.933528 Z M 378.97452 12.325162 C 380.051309 12.903695 380.928795 13.681529 381.606979 14.661435 C 382.282394 15.641341 382.775115 16.743043 383.08791 17.963774 C 383.397937 19.187272 383.55295 20.460596 383.55295 21.780978 C 383.55295 22.874376 383.467139 23.92902 383.292749 24.94768 C 383.115591 25.966339 382.877535 26.899187 382.573044 27.748993 C 382.271322 28.601566 381.914238 29.321271 381.501791 29.913644 C 380.546798 31.341981 379.519835 32.573784 378.426437 33.606283 C 377.333039 34.638783 376.217496 35.469212 375.077041 36.100338 C 373.939353 36.731464 372.80997 37.193736 371.694428 37.489922 C 370.578885 37.786108 369.474415 37.932817 368.381017 37.932817 C 367.088316 37.932817 365.86205 37.733514 364.699449 37.329372 C 363.539617 36.927998 362.548639 36.399292 361.726515 35.746021 C 360.375684 34.622175 359.321039 33.108026 358.559813 31.200808 C 357.801355 29.296358 357.422125 27.278416 357.422125 25.152519 C 357.422125 21.493096 358.47677 18.53677 360.588827 16.289076 C 362.396394 14.359713 364.264858 12.906463 366.191453 11.926557 C 368.120816 10.946651 370.097236 10.456698 372.115178 10.456698 C 373.299923 10.456698 374.440379 10.606175 375.533777 10.902361 C 376.627174 11.198547 377.773166 11.671892 378.97452 12.325162 Z M 377.629225 16.153439 C 377.371792 17.307735 376.812637 18.326394 375.954527 19.206649 C 375.096417 20.086903 374.257684 20.52703 373.438328 20.52703 C 373.02865 20.52703 372.663261 20.421843 372.34493 20.208699 C 371.888194 19.843311 371.661211 19.206649 371.661211 18.295945 C 371.661211 17.595617 371.893731 16.906361 372.356003 16.222641 C 372.818275 15.538922 373.55182 14.999143 374.553871 14.603305 C 373.55182 14.603305 372.582986 14.794304 371.650138 15.173533 C 370.714522 15.552762 369.914542 16.042715 369.244663 16.643392 C 368.577552 17.244069 368.043309 17.919484 367.639167 18.669638 C 367.237793 19.42256 367.035722 20.17825 367.035722 20.936709 C 367.035722 22.351206 367.688993 23.475053 368.995534 24.311018 C 370.210728 25.083316 371.365024 25.47085 372.458422 25.47085 C 373.535211 25.47085 374.492973 25.110997 375.328938 24.388524 C 376.164902 23.668819 376.801565 22.741507 377.241692 21.609356 C 377.681819 20.477205 377.903267 19.358894 377.903267 18.248888 C 377.903267 17.490429 377.811919 16.790101 377.629225 16.153439 Z M 381.731543 8.635291 L 392.917419 9.933528 C 392.646145 13.532052 392.50774 16.502219 392.50774 18.84126 C 392.50774 20.012165 392.543726 21.02252 392.61016 21.872325 C 392.679362 22.72213 392.790086 23.497197 392.942331 24.194757 C 393.094577 24.895086 393.274503 25.495763 393.487646 25.996788 C 394.445407 28.166975 395.317358 29.254837 396.109033 29.254837 C 396.715246 29.254837 397.338068 28.47977 397.977498 26.929636 C 398.401016 25.850079 398.780246 24.792666 399.115185 23.751862 C 399.450125 22.711058 399.707558 21.72008 399.890252 20.778927 C 400.072946 19.837775 400.208583 18.802507 400.29993 17.67866 C 400.391277 16.554813 400.438335 15.325778 400.438335 13.988788 C 400.438335 12.651798 400.421726 11.610994 400.391277 10.866376 L 409.913527 11.436604 C 410.417321 14.581161 410.713507 16.477306 410.802086 17.122273 C 410.893433 17.767239 410.940491 18.575523 410.940491 19.547125 C 410.940491 21.202446 410.536349 23.663283 409.733601 26.929636 C 409.337763 28.584958 408.463045 30.323322 407.112214 32.147497 C 405.761383 33.968904 404.454842 35.244996 403.19259 35.975773 C 401.218938 37.09962 398.91865 37.661544 396.291727 37.661544 C 394.467552 37.661544 392.693203 37.401343 390.971447 36.886477 C 389.246923 36.368843 387.663573 35.60208 386.221395 34.586189 C 384.867796 33.642269 383.78547 32.413234 382.974418 30.893549 C 382.160598 29.373865 381.595907 27.718544 381.277575 25.927585 C 380.956476 24.133859 380.798695 22.146367 380.798695 19.956803 C 380.798695 18.65303 380.840216 17.390778 380.923259 16.175584 C 381.006302 14.96039 381.117026 13.720283 381.252663 12.449727 C 381.391067 11.181939 381.548849 9.911383 381.731543 8.635291 Z M 417.844122 10.68645 C 419.529892 10.124526 420.980374 9.695471 422.195568 9.399285 C 423.410762 9.103099 424.573363 8.953622 425.680601 8.953622 C 427.169837 8.953622 428.476378 9.280257 429.600225 9.933528 C 430.951056 10.708595 432.409842 12.028976 433.973816 13.897441 C 435.53779 15.765906 436.51216 17.498734 436.891389 19.093157 C 437.696905 22.326293 438.098279 25.152519 438.098279 27.569066 C 438.098279 28.84239 438.015236 30.184917 437.84915 31.588342 C 437.680297 32.994534 437.422864 34.796565 437.074084 36.999969 L 427.549066 37.570197 C 427.579515 36.80897 427.596123 35.715572 427.596123 34.290003 C 427.596123 28.335829 426.773999 23.270213 425.135286 19.093157 C 424.495856 17.529183 423.873034 16.745812 423.266821 16.745812 C 422.477914 16.745812 421.603196 17.839209 420.645435 20.026005 C 420.418451 20.55748 420.232988 21.166461 420.089047 21.85018 C 419.945106 22.5339 419.837151 23.300663 419.767948 24.150468 C 419.701514 25.000273 419.665529 26.002324 419.665529 27.15662 C 419.665529 29.495661 419.803934 32.465828 420.077975 36.067121 L 408.889332 37.365358 C 408.709405 36.028367 408.540552 34.699681 408.388306 33.376531 C 408.236061 32.05615 408.119801 30.829883 408.036758 29.697732 C 407.953715 28.565581 407.909426 27.347619 407.909426 26.041077 C 407.909426 25.479154 407.939875 24.665334 408.000773 23.602385 L 407.591095 10.321061 L 416.545885 9.180606 Z M 439.396516 -2.938118 L 449.353357 -7.427969 L 449.195575 7.882369 L 456.622376 8.065063 L 456.622376 16.837159 L 448.921534 16.928506 C 448.647492 19.084853 448.511856 21.113867 448.511856 23.010012 C 448.511856 24.590595 448.603203 25.897136 448.783129 26.929636 C 448.935374 27.779442 449.317371 28.432712 449.923584 28.889448 C 450.529797 29.346184 451.23843 29.573168 452.041178 29.573168 C 452.938041 29.573168 453.72418 29.307431 454.399595 28.775956 C 455.077779 28.244482 455.415487 27.513704 455.415487 26.58916 C 455.415487 26.450756 455.385038 26.185018 455.324139 25.791949 L 462.773085 20.936709 C 463.091416 21.529081 463.490022 22.525596 463.968903 23.923484 C 464.447783 25.318604 464.68584 26.846593 464.68584 28.501915 C 464.68584 30.492176 464.16267 32.291438 463.116329 33.90247 C 462.067221 35.510733 460.273495 36.734232 457.737919 37.570197 C 455.960802 38.145961 454.283335 38.436611 452.702753 38.436611 C 450.319422 38.436611 448.218437 37.910672 446.402567 36.864332 C 444.589464 35.815224 443.080852 34.55574 441.882266 33.080345 C 441.320343 32.396625 440.882983 31.267242 440.570189 29.68666 C 440.260162 28.106077 440.058091 26.45906 439.966744 24.74284 C 439.875397 23.026621 439.831107 21.310402 439.831107 19.594182 L 439.831107 17.019853 L 433.11017 17.224692 L 431.4244 6.94952 L 439.922454 7.519748 Z M 439.396516 -2.938118 " transform="matrix(1.411169,0,0,1.411169,152.183519,266.837586)"/></g></svg>