<?xml version="1.0" encoding="UTF-8"?><svg xmlns="http://www.w3.org/2000/svg" xmlns:xlink="http://www.w3.org/1999/xlink" contentScriptType="text/ecmascript" width="960pt" zoomAndPan="magnify" contentStyleType="text/css" viewBox="0 0 960 599.999999" height="599.999999pt" preserveAspectRatio="xMidYMid meet" version="1.2"><defs><g/></defs><g xml:id="surface1" id="surface1"><g style="fill:rgb(100%,85.488892%,22.749329%);fill-opacity:1;"><g transform="translate(406.212903, 322.136901)"><path style="stroke:none;" d="M 16.859375 -4.21875 L 50.609375 -2.640625 L 50.34375 11.328125 L 3.40625 8.96875 L 0.515625 -46.90625 L -4.21875 -45.84375 L -2.640625 -53.765625 L 13.703125 -60.609375 Z M 16.859375 -4.21875 "/></g></g><g style="fill:rgb(100%,85.488892%,22.749329%);fill-opacity:1;"><g transform="translate(441.255823, 322.136901)"><path style="stroke:none;" d="M 29.1875 -34.84375 C 30.707031 -34.03125 31.941406 -32.929688 32.890625 -31.546875 C 33.847656 -30.160156 34.546875 -28.601562 34.984375 -26.875 C 35.421875 -25.15625 35.640625 -23.359375 35.640625 -21.484375 C 35.640625 -19.941406 35.515625 -18.453125 35.265625 -17.015625 C 35.023438 -15.578125 34.691406 -14.257812 34.265625 -13.0625 C 33.835938 -11.863281 33.332031 -10.84375 32.75 -10 C 31.394531 -7.988281 29.945312 -6.253906 28.40625 -4.796875 C 26.863281 -3.335938 25.285156 -2.160156 23.671875 -1.265625 C 22.066406 -0.378906 20.472656 0.269531 18.890625 0.6875 C 17.316406 1.101562 15.757812 1.3125 14.21875 1.3125 C 12.394531 1.3125 10.660156 1.023438 9.015625 0.453125 C 7.378906 -0.109375 5.984375 -0.847656 4.828125 -1.765625 C 2.921875 -3.359375 1.429688 -5.5 0.359375 -8.1875 C -0.710938 -10.875 -1.25 -13.722656 -1.25 -16.734375 C -1.25 -21.898438 0.238281 -26.070312 3.21875 -29.25 C 5.769531 -31.96875 8.40625 -34.019531 11.125 -35.40625 C 13.851562 -36.789062 16.644531 -37.484375 19.5 -37.484375 C 21.164062 -37.484375 22.769531 -37.273438 24.3125 -36.859375 C 25.863281 -36.441406 27.488281 -35.769531 29.1875 -34.84375 Z M 27.28125 -29.4375 C 26.914062 -27.8125 26.125 -26.375 24.90625 -25.125 C 23.695312 -23.882812 22.515625 -23.265625 21.359375 -23.265625 C 20.785156 -23.265625 20.269531 -23.414062 19.8125 -23.71875 C 19.175781 -24.226562 18.859375 -25.128906 18.859375 -26.421875 C 18.859375 -27.398438 19.179688 -28.375 19.828125 -29.34375 C 20.484375 -30.3125 21.519531 -31.070312 22.9375 -31.625 C 21.519531 -31.625 20.148438 -31.351562 18.828125 -30.8125 C 17.515625 -30.28125 16.382812 -29.585938 15.4375 -28.734375 C 14.5 -27.890625 13.742188 -26.9375 13.171875 -25.875 C 12.609375 -24.820312 12.328125 -23.757812 12.328125 -22.6875 C 12.328125 -20.6875 13.25 -19.097656 15.09375 -17.921875 C 16.800781 -16.828125 18.429688 -16.28125 19.984375 -16.28125 C 21.503906 -16.28125 22.851562 -16.789062 24.03125 -17.8125 C 25.207031 -18.832031 26.109375 -20.140625 26.734375 -21.734375 C 27.359375 -23.328125 27.671875 -24.910156 27.671875 -26.484375 C 27.671875 -27.554688 27.539062 -28.539062 27.28125 -29.4375 Z M 27.28125 -29.4375 "/></g></g><g style="fill:rgb(100%,85.488892%,22.749329%);fill-opacity:1;"><g transform="translate(473.016887, 322.136901)"><path style="stroke:none;" d="M 23.578125 -17.34375 L 23.453125 -24.265625 C 22.078125 -24.265625 21.15625 -24.46875 20.6875 -24.875 C 20.21875 -25.28125 19.984375 -25.878906 19.984375 -26.671875 C 19.984375 -27.546875 20.148438 -28.453125 20.484375 -29.390625 C 20.816406 -30.328125 21.085938 -31.007812 21.296875 -31.4375 C 19.691406 -31.15625 18.226562 -30.5625 16.90625 -29.65625 C 15.582031 -28.757812 14.53125 -27.675781 13.75 -26.40625 C 12.96875 -25.144531 12.578125 -23.90625 12.578125 -22.6875 C 12.578125 -20.6875 13.5 -19.097656 15.34375 -17.921875 C 16.4375 -17.210938 17.953125 -16.859375 19.890625 -16.859375 C 21.148438 -16.859375 22.378906 -17.019531 23.578125 -17.34375 Z M 35.328125 -0.515625 L 35.328125 3.09375 C 35.328125 7.207031 35.140625 11.050781 34.765625 14.625 C 34.390625 18.195312 33.613281 20.703125 32.4375 22.140625 C 30.738281 24.234375 28.609375 26.019531 26.046875 27.5 C 23.484375 28.988281 20.503906 29.734375 17.109375 29.734375 C 14.941406 29.734375 12.570312 29.3125 10 28.46875 C 7.488281 27.632812 5.519531 26.546875 4.09375 25.203125 C 2.675781 23.867188 1.671875 22.394531 1.078125 20.78125 C 0.484375 19.175781 0.1875 17.472656 0.1875 15.671875 C 0.1875 13.328125 0.523438 11.175781 1.203125 9.21875 C 1.878906 7.257812 2.441406 5.859375 2.890625 5.015625 L 13.453125 11.875 C 13.359375 12.382812 13.3125 12.75 13.3125 12.96875 C 13.3125 14.269531 13.78125 15.300781 14.71875 16.0625 C 15.65625 16.832031 16.765625 17.21875 18.046875 17.21875 C 19.179688 17.21875 20.179688 16.890625 21.046875 16.234375 C 21.921875 15.578125 22.46875 14.648438 22.6875 13.453125 C 22.9375 12.015625 23.0625 10.171875 23.0625 7.921875 C 23.0625 5.148438 22.859375 2.296875 22.453125 -0.640625 C 19.773438 0.660156 17.03125 1.3125 14.21875 1.3125 C 12.375 1.3125 10.640625 1.03125 9.015625 0.46875 C 7.398438 -0.0820312 6.003906 -0.828125 4.828125 -1.765625 C 2.921875 -3.359375 1.429688 -5.5 0.359375 -8.1875 C -0.710938 -10.875 -1.25 -13.722656 -1.25 -16.734375 C -1.25 -21.898438 0.238281 -26.070312 3.21875 -29.25 C 8.382812 -34.738281 13.832031 -37.484375 19.5625 -37.484375 C 21.382812 -37.484375 23.078125 -37.25 24.640625 -36.78125 L 34.515625 -41.625 Z M 35.328125 -0.515625 "/></g></g><g style="fill:rgb(100%,85.488892%,22.749329%);fill-opacity:1;"><g transform="translate(504.777954, 322.136901)"><path style="stroke:none;" d="M 17.40625 6.046875 L 2.890625 6.859375 L 2.125 -27.671875 L -2.640625 -26.609375 L -1.0625 -34.515625 L 15.28125 -41.375 Z M 6.859375 -60.875 C 8.378906 -60.875 9.691406 -60.617188 10.796875 -60.109375 C 11.898438 -59.609375 12.804688 -59 13.515625 -58.28125 C 14.222656 -57.5625 14.703125 -56.9375 14.953125 -56.40625 C 15.210938 -55.820312 15.34375 -55.1875 15.34375 -54.5 C 15.34375 -53.445312 15.117188 -52.378906 14.671875 -51.296875 C 14.222656 -50.210938 13.675781 -49.285156 13.03125 -48.515625 C 12.382812 -47.742188 11.773438 -47.296875 11.203125 -47.171875 C 10.078125 -46.992188 9.238281 -46.90625 8.6875 -46.90625 C 7.269531 -46.90625 6.035156 -47.148438 4.984375 -47.640625 C 3.929688 -48.140625 3.09375 -48.859375 2.46875 -49.796875 C 1.851562 -50.742188 1.46875 -51.851562 1.3125 -53.125 C 1.3125 -54.945312 1.753906 -56.648438 2.640625 -58.234375 C 3.535156 -59.816406 4.941406 -60.695312 6.859375 -60.875 Z M 6.859375 -60.875 "/></g></g><g style="fill:rgb(100%,85.488892%,22.749329%);fill-opacity:1;"><g transform="translate(520.065383, 322.136901)"><path style="stroke:none;" d="M 13.96875 -37.15625 C 16.34375 -37.945312 18.390625 -38.550781 20.109375 -38.96875 C 21.828125 -39.394531 23.46875 -39.609375 25.03125 -39.609375 C 27.132812 -39.609375 28.976562 -39.144531 30.5625 -38.21875 C 32.46875 -37.125 34.523438 -35.257812 36.734375 -32.625 C 38.953125 -29.988281 40.328125 -27.539062 40.859375 -25.28125 C 41.992188 -20.71875 42.5625 -16.726562 42.5625 -13.3125 C 42.5625 -11.507812 42.441406 -9.617188 42.203125 -7.640625 C 41.972656 -5.660156 41.613281 -3.113281 41.125 0 L 27.671875 0.796875 C 27.710938 -0.265625 27.734375 -1.804688 27.734375 -3.828125 C 27.734375 -12.234375 26.578125 -19.382812 24.265625 -25.28125 C 23.359375 -27.5 22.476562 -28.609375 21.625 -28.609375 C 20.507812 -28.609375 19.273438 -27.0625 17.921875 -23.96875 C 17.597656 -23.21875 17.332031 -22.359375 17.125 -21.390625 C 16.925781 -20.429688 16.773438 -19.347656 16.671875 -18.140625 C 16.578125 -16.941406 16.53125 -15.53125 16.53125 -13.90625 C 16.53125 -10.59375 16.722656 -6.394531 17.109375 -1.3125 L 1.3125 0.515625 C 1.0625 -1.367188 0.828125 -3.242188 0.609375 -5.109375 C 0.398438 -6.984375 0.234375 -8.71875 0.109375 -10.3125 C -0.00390625 -11.90625 -0.0625 -13.625 -0.0625 -15.46875 C -0.0625 -16.269531 -0.0195312 -17.421875 0.0625 -18.921875 L -0.515625 -37.671875 L 12.125 -39.28125 Z M 13.96875 -37.15625 "/></g></g><path style="fill:none;stroke-width:3.185168;stroke-linecap:butt;stroke-linejoin:miter;stroke:rgb(0%,36.859131%,100%);stroke-opacity:1;stroke-miterlimit:4;" d="M 152.885792 64.377752 L 197.891002 66.481919 L 197.547252 85.101711 L 134.9535 81.971503 L 131.094125 7.450666 L 124.786833 8.867333 L 126.890999 -1.684751 L 148.682667 -10.825376 Z M 216.042045 23.539209 C 218.073295 24.62775 219.724337 26.091292 220.99517 27.935042 C 222.266003 29.778792 223.198295 31.856917 223.786837 34.159001 C 224.37017 36.461084 224.661837 38.856917 224.661837 41.341293 C 224.661837 43.403793 224.500379 45.388168 224.172254 47.304835 C 223.83892 49.221501 223.391003 50.981918 222.818087 52.580876 C 222.24517 54.185043 221.573295 55.544418 220.802462 56.659002 C 219.000378 59.346502 217.068087 61.66421 215.010795 63.606919 C 212.953503 65.554835 210.849336 67.117335 208.703503 68.304835 C 206.557669 69.492335 204.437878 70.362127 202.333711 70.924627 C 200.229544 71.481919 198.151419 71.757961 196.094127 71.757961 C 193.661836 71.757961 191.349335 71.377752 189.161835 70.622544 C 186.974335 69.862127 185.109752 68.872544 183.562877 67.638169 C 181.02121 65.523585 179.031627 62.669419 177.604543 59.080877 C 176.172251 55.492335 175.45871 51.69546 175.45871 47.690251 C 175.45871 40.799626 177.443085 35.237126 181.422252 31.00275 C 184.823293 27.372542 188.338919 24.632959 191.974335 22.789208 C 195.604544 20.945458 199.323294 20.023583 203.125378 20.023583 C 205.359753 20.023583 207.505586 20.299625 209.562878 20.856917 C 211.62017 21.414208 213.781628 22.310042 216.042045 23.539209 Z M 213.510795 30.747542 C 213.021211 32.919417 211.974336 34.836084 210.354545 36.492334 C 208.739961 38.153792 207.161836 38.981918 205.614961 38.981918 C 204.844128 38.981918 204.156628 38.784001 203.557669 38.382959 C 202.698294 37.695459 202.271211 36.492334 202.271211 34.778792 C 202.271211 33.461084 202.703503 32.164209 203.578503 30.872542 C 204.448294 29.586084 205.828503 28.570459 207.719128 27.830875 C 205.828503 27.830875 204.005586 28.185042 202.250378 28.903792 C 200.489961 29.617334 198.979544 30.539209 197.724336 31.669417 C 196.463919 32.799626 195.453502 34.070459 194.698294 35.487126 C 193.937877 36.903792 193.562877 38.325667 193.562877 39.752751 C 193.562877 42.414209 194.792044 44.534001 197.250377 46.106918 C 199.536836 47.565251 201.713919 48.294418 203.771211 48.294418 C 205.802461 48.294418 207.604544 47.612126 209.177461 46.252751 C 210.750378 44.898584 211.953503 43.153793 212.781628 41.018376 C 213.609753 38.888167 214.02642 36.778792 214.02642 34.695459 C 214.02642 33.263167 213.854545 31.945459 213.510795 30.747542 Z M 250.922255 46.877751 L 250.75038 37.653792 C 248.922255 37.653792 247.693088 37.382959 247.062879 36.836084 C 246.432671 36.294417 246.120171 35.492334 246.120171 34.435042 C 246.120171 33.263167 246.338921 32.054834 246.786838 30.810042 C 247.229546 29.56525 247.59413 28.659 247.880588 28.086084 C 245.734754 28.455875 243.781629 29.242334 242.021213 30.445459 C 240.266004 31.648584 238.859754 33.091292 237.818087 34.778792 C 236.776421 36.466292 236.250379 38.122542 236.250379 39.752751 C 236.250379 42.414209 237.479546 44.534001 239.943088 46.106918 C 241.401421 47.049626 243.417046 47.518376 245.989963 47.518376 C 247.677463 47.518376 249.323296 47.304835 250.922255 46.877751 Z M 266.583714 69.315252 L 266.583714 74.117336 C 266.583714 79.612128 266.333714 84.737128 265.833714 89.497545 C 265.333714 94.257962 264.297255 97.601712 262.724338 99.51317 C 260.463922 102.320462 257.62538 104.705879 254.208713 106.679837 C 250.786838 108.653795 246.818088 109.638171 242.302463 109.638171 C 239.411837 109.638171 236.250379 109.080879 232.818087 107.966295 C 229.474337 106.851712 226.849337 105.398587 224.948295 103.612129 C 223.047253 101.82567 221.703503 99.85692 220.917045 97.711087 C 220.130587 95.570462 219.734753 93.29442 219.734753 90.893378 C 219.734753 87.773586 220.187878 84.909003 221.08892 82.289211 C 221.989962 79.674628 222.739962 77.810044 223.33892 76.690252 L 237.411837 85.830878 C 237.297254 86.518378 237.239962 87.002753 237.239962 87.289211 C 237.239962 89.034003 237.859754 90.414211 239.104546 91.429836 C 240.349338 92.445461 241.828504 92.95067 243.547254 92.95067 C 245.062879 92.95067 246.396213 92.51317 247.557671 91.643378 C 248.713921 90.768378 249.43788 89.534003 249.724338 87.929836 C 250.068088 86.018378 250.239963 83.554836 250.239963 80.554836 C 250.239963 76.862127 249.963921 73.060044 249.422255 69.143377 C 245.849338 70.888169 242.187879 71.757961 238.437879 71.757961 C 235.979546 71.757961 233.672254 71.388169 231.510795 70.643377 C 229.354545 69.898585 227.484754 68.898585 225.911837 67.638169 C 223.37017 65.523585 221.380587 62.669419 219.948295 59.080877 C 218.521212 55.492335 217.80767 51.69546 217.80767 47.690251 C 217.80767 40.799626 219.792045 35.237126 223.766003 31.00275 C 230.661837 23.679834 237.927462 20.023583 245.562879 20.023583 C 247.995171 20.023583 250.25038 20.336083 252.338921 20.966292 L 265.510797 14.487125 Z M 285.036839 78.065253 L 265.68788 79.138169 L 264.65663 33.106917 L 258.307672 34.523584 L 260.411838 23.966292 L 282.203506 14.830875 Z M 270.963922 -11.169126 C 272.995172 -11.169126 274.745172 -10.830585 276.219131 -10.15871 C 277.693089 -9.486835 278.901423 -8.674335 279.844131 -7.716001 C 280.786839 -6.757668 281.432673 -5.919126 281.776423 -5.205584 C 282.120173 -4.434751 282.292048 -3.591001 282.292048 -2.674334 C 282.292048 -1.273293 281.989964 0.148583 281.391006 1.596499 C 280.786839 3.039208 280.057673 4.278791 279.203506 5.304833 C 278.344131 6.336083 277.526422 6.935041 276.755589 7.106916 C 275.266006 7.336083 274.151422 7.450666 273.411839 7.450666 C 271.521214 7.450666 269.87538 7.122541 268.474339 6.466291 C 267.073297 5.804833 265.958714 4.846499 265.130589 3.591291 C 264.302464 2.330874 263.786839 0.856916 263.583714 -0.830584 C 263.583714 -3.257668 264.177464 -5.533709 265.364964 -7.648293 C 266.552464 -9.768085 268.417047 -10.93996 270.963922 -11.169126 Z M 300.828507 20.450667 C 304.000382 19.393375 306.734757 18.586083 309.021215 18.023583 C 311.312882 17.466292 313.500382 17.19025 315.583716 17.19025 C 318.391008 17.19025 320.849341 17.804833 322.963924 19.034 C 325.510799 20.492333 328.255591 22.981917 331.203508 26.497542 C 334.146217 30.018375 335.97955 33.278792 336.693092 36.278792 C 338.208717 42.372543 338.969133 47.690251 338.969133 52.237126 C 338.969133 54.643377 338.807675 57.16421 338.495175 59.810043 C 338.182675 62.455877 337.693092 65.85171 337.036842 69.997544 L 319.104549 71.070461 C 319.161841 69.643377 319.187883 67.580877 319.187883 64.893377 C 319.187883 53.685043 317.646216 44.143376 314.557674 36.278792 C 313.354549 33.336084 312.182674 31.862126 311.036841 31.862126 C 309.552465 31.862126 307.906632 33.919417 306.104549 38.039209 C 305.677465 39.039209 305.323299 40.185043 305.052465 41.471501 C 304.781632 42.757959 304.583715 44.200668 304.453507 45.804834 C 304.323299 47.403793 304.260799 49.294418 304.260799 51.466293 C 304.260799 55.872543 304.516007 61.461085 305.031632 68.242335 L 283.969131 70.685044 C 283.625381 68.169419 283.312881 65.669419 283.026423 63.179835 C 282.739964 60.690252 282.516006 58.38296 282.359756 56.252752 C 282.203506 54.117335 282.125381 51.825668 282.125381 49.367335 C 282.125381 48.304835 282.182673 46.778793 282.297256 44.773584 L 281.521214 19.763167 L 298.38059 17.617333 Z M 300.828507 20.450667 " transform="matrix(0.75,0,0,0.75,305.495817,266.724501)"/></g></svg>