<?xml version="1.0" encoding="UTF-8"?><svg xmlns="http://www.w3.org/2000/svg" xmlns:xlink="http://www.w3.org/1999/xlink" contentScriptType="text/ecmascript" width="960pt" zoomAndPan="magnify" contentStyleType="text/css" viewBox="0 0 960 599.999999" height="599.999999pt" preserveAspectRatio="xMidYMid meet" version="1.2"><defs><g/></defs><g xml:id="surface1" id="surface1"><g style="fill:rgb(100%,85.488892%,22.749329%);fill-opacity:1;"><g transform="translate(292.634549, 336.078608)"><path style="stroke:none;" d="M -4.171875 -80.6875 C -0.0664062 -82.039062 3.785156 -83.289062 7.390625 -84.4375 C 10.992188 -85.59375 14.789062 -86.6875 18.78125 -87.71875 C 22.78125 -88.757812 26.609375 -89.582031 30.265625 -90.1875 C 33.078125 -90.664062 35.957031 -90.90625 38.90625 -90.90625 C 43.8125 -90.90625 47.023438 -90.769531 48.546875 -90.5 C 50.847656 -90.050781 53.019531 -89.335938 55.0625 -88.359375 C 57.113281 -87.378906 58.941406 -86.066406 60.546875 -84.421875 C 62.160156 -82.785156 63.476562 -80.847656 64.5 -78.609375 C 64.90625 -77.691406 65.109375 -76.726562 65.109375 -75.71875 C 65.109375 -71.925781 63.03125 -67.253906 58.875 -61.703125 C 54.726562 -56.148438 50.566406 -51.304688 46.390625 -47.171875 C 42.210938 -43.046875 39.085938 -40.085938 37.015625 -38.296875 L 46.15625 -6.25 L 32.859375 3.359375 L 9.546875 -63.21875 C 9.484375 -63.21875 9.160156 -62.894531 8.578125 -62.25 C 8.003906 -61.613281 7.25 -60.78125 6.3125 -59.75 C 5.382812 -58.71875 4.804688 -58.082031 4.578125 -57.84375 C 4.472656 -57.84375 4.140625 -58.566406 3.578125 -60.015625 C 3.023438 -61.472656 2.28125 -63.5 1.34375 -66.09375 C 0.414062 -68.6875 -0.628906 -71.5625 -1.796875 -74.71875 C -2.972656 -77.882812 -3.765625 -79.875 -4.171875 -80.6875 Z M 28.6875 -66.578125 L 32.859375 -51.59375 C 34.953125 -53.726562 37.554688 -56.640625 40.671875 -60.328125 C 43.785156 -64.015625 45.34375 -66.691406 45.34375 -68.359375 C 45.34375 -68.992188 45.070312 -69.363281 44.53125 -69.46875 C 43.007812 -69.8125 41.503906 -69.984375 40.015625 -69.984375 C 35.546875 -69.984375 31.769531 -68.847656 28.6875 -66.578125 Z M 28.6875 -66.578125 "/></g></g><g style="fill:rgb(100%,85.488892%,22.749329%);fill-opacity:1;"><g transform="translate(347.937937, 336.078608)"><path style="stroke:none;" d="M 46.0625 -55 C 48.46875 -53.707031 50.421875 -51.96875 51.921875 -49.78125 C 53.429688 -47.601562 54.53125 -45.148438 55.21875 -42.421875 C 55.914062 -39.703125 56.265625 -36.867188 56.265625 -33.921875 C 56.265625 -31.484375 56.066406 -29.128906 55.671875 -26.859375 C 55.285156 -24.597656 54.753906 -22.519531 54.078125 -20.625 C 53.398438 -18.726562 52.609375 -17.117188 51.703125 -15.796875 C 49.566406 -12.609375 47.28125 -9.863281 44.84375 -7.5625 C 42.40625 -5.257812 39.914062 -3.40625 37.375 -2 C 34.832031 -0.59375 32.316406 0.4375 29.828125 1.09375 C 27.347656 1.75 24.890625 2.078125 22.453125 2.078125 C 19.566406 2.078125 16.828125 1.628906 14.234375 0.734375 C 11.648438 -0.160156 9.445312 -1.335938 7.625 -2.796875 C 4.601562 -5.296875 2.242188 -8.671875 0.546875 -12.921875 C -1.140625 -17.171875 -1.984375 -21.664062 -1.984375 -26.40625 C -1.984375 -34.5625 0.367188 -41.144531 5.078125 -46.15625 C 9.109375 -50.457031 13.269531 -53.695312 17.5625 -55.875 C 21.863281 -58.0625 26.269531 -59.15625 30.78125 -59.15625 C 33.414062 -59.15625 35.953125 -58.828125 38.390625 -58.171875 C 40.828125 -57.515625 43.382812 -56.457031 46.0625 -55 Z M 43.0625 -46.46875 C 42.488281 -43.894531 41.242188 -41.625 39.328125 -39.65625 C 37.421875 -37.695312 35.550781 -36.71875 33.71875 -36.71875 C 32.800781 -36.71875 31.988281 -36.953125 31.28125 -37.421875 C 30.269531 -38.234375 29.765625 -39.65625 29.765625 -41.6875 C 29.765625 -43.25 30.28125 -44.789062 31.3125 -46.3125 C 32.34375 -47.832031 33.972656 -49.035156 36.203125 -49.921875 C 33.972656 -49.921875 31.816406 -49.492188 29.734375 -48.640625 C 27.648438 -47.796875 25.863281 -46.707031 24.375 -45.375 C 22.882812 -44.039062 21.691406 -42.535156 20.796875 -40.859375 C 19.898438 -39.179688 19.453125 -37.492188 19.453125 -35.796875 C 19.453125 -32.648438 20.90625 -30.144531 23.8125 -28.28125 C 26.519531 -26.5625 29.09375 -25.703125 31.53125 -25.703125 C 33.9375 -25.703125 36.070312 -26.503906 37.9375 -28.109375 C 39.800781 -29.710938 41.222656 -31.773438 42.203125 -34.296875 C 43.179688 -36.828125 43.671875 -39.328125 43.671875 -41.796875 C 43.671875 -43.484375 43.46875 -45.039062 43.0625 -46.46875 Z M 43.0625 -46.46875 "/></g></g><g style="fill:rgb(100%,85.488892%,22.749329%);fill-opacity:1;"><g transform="translate(398.062027, 336.078608)"><path style="stroke:none;" d="M -4.171875 -84.859375 L 21.640625 -95.671875 L 25.390625 -37.015625 L 46.625 -48.65625 L 68.65625 -45.34375 L 39.921875 -23.3125 L 66.984375 -2.890625 L 68.203125 17.46875 L 28.28125 -11.21875 L 29.5625 13.71875 L 5.390625 14.171875 L 0.8125 -74.046875 L -6.65625 -72.359375 Z M -4.171875 -84.859375 "/></g></g><g style="fill:rgb(100%,85.488892%,22.749329%);fill-opacity:1;"><g transform="translate(453.365415, 336.078608)"><path style="stroke:none;" d="M 46.828125 -28.078125 L 59.0625 -13.3125 C 58.082031 -10.46875 55.753906 -7.859375 52.078125 -5.484375 C 48.398438 -3.117188 44.03125 -1.25 38.96875 0.125 C 33.914062 1.5 28.863281 2.1875 23.8125 2.1875 C 19.34375 2.1875 15.359375 1.59375 11.859375 0.40625 C 8.359375 -0.78125 5.660156 -2.578125 3.765625 -4.984375 C 0.472656 -9.109375 -1.171875 -14.390625 -1.171875 -20.828125 C -1.171875 -25.898438 -0.25 -30.898438 1.59375 -35.828125 C 3.445312 -40.753906 5.40625 -44.195312 7.46875 -46.15625 C 9.9375 -48.5 12.617188 -50.445312 15.515625 -52 C 18.410156 -53.5625 21.414062 -54.726562 24.53125 -55.5 C 27.644531 -56.28125 30.84375 -56.671875 34.125 -56.671875 C 38.425781 -56.671875 42.515625 -55.984375 46.390625 -54.609375 C 50.265625 -53.242188 53.660156 -51.257812 56.578125 -48.65625 L 28.6875 -15.390625 C 31.164062 -15.390625 33.507812 -15.90625 35.71875 -16.9375 C 37.9375 -17.96875 39.976562 -19.4375 41.84375 -21.34375 C 43.707031 -23.257812 45.367188 -25.503906 46.828125 -28.078125 Z M 32.75 -39.921875 C 31.09375 -40.765625 29.398438 -41.1875 27.671875 -41.1875 C 25.847656 -41.1875 24.082031 -40.8125 22.375 -40.0625 C 20.664062 -39.320312 19.453125 -38.441406 18.734375 -37.421875 C 16.640625 -34.710938 15.59375 -31.734375 15.59375 -28.484375 C 15.59375 -27.304688 15.707031 -26.175781 15.9375 -25.09375 C 16.175781 -24.007812 16.585938 -22.519531 17.171875 -20.625 Z M 6.65625 -76.53125 L 33.71875 -91.515625 L 45.34375 -73.640625 L 12.5 -67.390625 Z M 6.65625 -76.53125 "/></g></g><g style="fill:rgb(100%,85.488892%,22.749329%);fill-opacity:1;"><g transform="translate(503.489505, 336.078608)"><path style="stroke:none;" d="M 33.71875 -49.71875 C 31.851562 -49.476562 30.015625 -48.882812 28.203125 -47.9375 C 26.398438 -46.988281 24.851562 -45.867188 23.5625 -44.578125 C 22.28125 -43.296875 21.273438 -41.882812 20.546875 -40.34375 C 19.816406 -38.800781 19.453125 -37.285156 19.453125 -35.796875 C 19.453125 -32.722656 20.90625 -30.21875 23.8125 -28.28125 C 26.382812 -26.5625 28.992188 -25.703125 31.640625 -25.703125 C 32.148438 -25.703125 32.84375 -25.769531 33.71875 -25.90625 L 33.71875 -36.71875 C 32.800781 -36.71875 31.988281 -36.953125 31.28125 -37.421875 C 30.269531 -38.234375 29.765625 -39.789062 29.765625 -42.09375 C 29.765625 -45.414062 31.082031 -47.957031 33.71875 -49.71875 Z M 33.265625 -99.03125 L 54.484375 -108.578125 L 55.765625 -39.8125 C 56.035156 -38.050781 56.171875 -36.054688 56.171875 -33.828125 C 56.171875 -31.859375 56.101562 -30.398438 55.96875 -29.453125 L 56.578125 1.671875 L 33.71875 2.890625 L 33.71875 -0.203125 C 30 1.316406 26.242188 2.078125 22.453125 2.078125 C 19.535156 2.078125 16.796875 1.632812 14.234375 0.75 C 11.679688 -0.125 9.476562 -1.304688 7.625 -2.796875 C 4.601562 -5.296875 2.242188 -8.671875 0.546875 -12.921875 C -1.140625 -17.171875 -1.984375 -21.664062 -1.984375 -26.40625 C -1.984375 -34.5625 0.367188 -41.144531 5.078125 -46.15625 C 9.140625 -50.425781 13.328125 -53.660156 17.640625 -55.859375 C 21.960938 -58.054688 26.375 -59.15625 30.875 -59.15625 C 32.125 -59.15625 33.070312 -59.125 33.71875 -59.0625 Z M 33.265625 -99.03125 "/></g></g><g style="fill:rgb(100%,85.488892%,22.749329%);fill-opacity:1;"><g transform="translate(553.613595, 336.078608)"><path style="stroke:none;" d="M 46.828125 -28.078125 L 59.0625 -13.3125 C 58.082031 -10.46875 55.753906 -7.859375 52.078125 -5.484375 C 48.398438 -3.117188 44.03125 -1.25 38.96875 0.125 C 33.914062 1.5 28.863281 2.1875 23.8125 2.1875 C 19.34375 2.1875 15.359375 1.59375 11.859375 0.40625 C 8.359375 -0.78125 5.660156 -2.578125 3.765625 -4.984375 C 0.472656 -9.109375 -1.171875 -14.390625 -1.171875 -20.828125 C -1.171875 -25.898438 -0.25 -30.898438 1.59375 -35.828125 C 3.445312 -40.753906 5.40625 -44.195312 7.46875 -46.15625 C 9.9375 -48.5 12.617188 -50.445312 15.515625 -52 C 18.410156 -53.5625 21.414062 -54.726562 24.53125 -55.5 C 27.644531 -56.28125 30.84375 -56.671875 34.125 -56.671875 C 38.425781 -56.671875 42.515625 -55.984375 46.390625 -54.609375 C 50.265625 -53.242188 53.660156 -51.257812 56.578125 -48.65625 L 28.6875 -15.390625 C 31.164062 -15.390625 33.507812 -15.90625 35.71875 -16.9375 C 37.9375 -17.96875 39.976562 -19.4375 41.84375 -21.34375 C 43.707031 -23.257812 45.367188 -25.503906 46.828125 -28.078125 Z M 32.75 -39.921875 C 31.09375 -40.765625 29.398438 -41.1875 27.671875 -41.1875 C 25.847656 -41.1875 24.082031 -40.8125 22.375 -40.0625 C 20.664062 -39.320312 19.453125 -38.441406 18.734375 -37.421875 C 16.640625 -34.710938 15.59375 -31.734375 15.59375 -28.484375 C 15.59375 -27.304688 15.707031 -26.175781 15.9375 -25.09375 C 16.175781 -24.007812 16.585938 -22.519531 17.171875 -20.625 Z M 32.75 -39.921875 "/></g></g><g style="fill:rgb(100%,85.488892%,22.749329%);fill-opacity:1;"><g transform="translate(603.737685, 336.078608)"><path style="stroke:none;" d="M 36.40625 -9.65625 L 24.125 6.25 L -2.078125 7.0625 L 23.3125 -26.515625 L -5.390625 -63.625 L 22.453125 -62.40625 L 36.40625 -43.984375 L 50.328125 -62.40625 L 78.203125 -63.625 L 49.515625 -26.515625 L 74.90625 7.0625 L 48.65625 6.25 Z M 36.40625 -9.65625 "/></g></g><path style="fill:none;stroke-width:5.200001;stroke-linecap:butt;stroke-linejoin:miter;stroke:rgb(0%,36.859131%,100%);stroke-opacity:1;stroke-miterlimit:4;" d="M 362.714491 4.414049 C 368.172824 2.611966 373.308241 0.940091 378.115533 -0.591159 C 382.922825 -2.127618 387.990533 -3.585951 393.318659 -4.960951 C 398.641576 -6.335951 403.740534 -7.429701 408.615534 -8.242201 C 412.365534 -8.877618 416.198868 -9.190118 420.125951 -9.190118 C 426.672827 -9.190118 430.959285 -9.013035 432.990535 -8.648451 C 436.063452 -8.065118 438.959286 -7.117201 441.693661 -5.804701 C 444.422828 -4.497409 446.860328 -2.747409 449.006161 -0.559909 C 451.146786 1.627591 452.896786 4.210924 454.250953 7.190091 C 454.79262 8.408841 455.063453 9.6953 455.063453 11.049466 C 455.063453 16.106758 452.297828 22.335925 446.771786 29.736967 C 441.240536 37.143217 435.688452 43.596343 430.115535 49.101551 C 424.53741 54.60676 420.375952 58.559885 417.620743 60.95051 L 429.808244 103.67447 L 412.068659 116.466138 L 380.995741 27.705717 C 380.901991 27.705717 380.474908 28.138009 379.709283 28.992175 C 378.93845 29.85155 377.93845 30.966134 376.693658 32.346342 C 375.454075 33.721342 374.672825 34.570301 374.360325 34.882801 C 374.224908 34.882801 373.7822 33.914051 373.037408 31.971342 C 372.292616 30.033842 371.303033 27.335925 370.058241 23.8828 C 368.818658 20.429675 367.417616 16.591133 365.860324 12.372383 C 364.303032 8.153633 363.256157 5.497383 362.714491 4.414049 Z M 406.516576 23.236967 L 412.068659 43.210926 C 414.870743 40.367176 418.344701 36.486967 422.495743 31.565092 C 426.651993 26.648425 428.72491 23.080717 428.72491 20.867175 C 428.72491 20.013008 428.365535 19.513008 427.641577 19.377592 C 425.610327 18.929675 423.605118 18.700508 421.615535 18.700508 C 415.657201 18.700508 410.625951 20.216133 406.516576 23.236967 Z M 503.412413 38.674468 C 506.615539 40.388009 509.224914 42.705718 511.230122 45.617176 C 513.240539 48.528635 514.709289 51.799468 515.631164 55.434885 C 516.558247 59.065093 517.021789 62.846344 517.021789 66.773427 C 517.021789 70.023427 516.761372 73.158844 516.240539 76.184886 C 515.724914 79.205719 515.011372 81.981761 514.110331 84.513011 C 513.20408 87.039053 512.146789 89.184886 510.928039 90.945303 C 508.084289 95.184887 505.037413 98.841137 501.787413 101.914054 C 498.537413 104.981762 495.219705 107.450512 491.834288 109.325512 C 488.448871 111.200512 485.099913 112.575512 481.782204 113.455721 C 478.464496 114.335929 475.178037 114.773429 471.928037 114.773429 C 468.094704 114.773429 464.44887 114.179679 460.995745 112.981762 C 457.54262 111.783846 454.594703 110.216137 452.157203 108.278637 C 448.141578 104.934887 445.006161 100.434887 442.745744 94.76822 C 440.490536 89.106761 439.365536 83.111969 439.365536 76.794261 C 439.365536 65.914052 442.500952 57.13801 448.771786 50.455718 C 454.146786 44.721343 459.69887 40.403634 465.428037 37.492176 C 471.162412 34.580717 477.026996 33.122384 483.032204 33.122384 C 486.553038 33.122384 489.938454 33.565092 493.188455 34.445301 C 496.438455 35.325509 499.844705 36.736967 503.412413 38.674468 Z M 499.417622 50.049468 C 498.651997 53.48176 496.990538 56.502593 494.443663 59.122385 C 491.89158 61.742177 489.396788 63.049469 486.959288 63.049469 C 485.740538 63.049469 484.657204 62.73176 483.709288 62.101552 C 482.355121 61.018218 481.678037 59.122385 481.678037 56.414052 C 481.678037 54.335927 482.365537 52.283843 483.745746 50.252593 C 485.120746 48.221343 487.297829 46.617176 490.276996 45.445301 C 487.297829 45.445301 484.422829 46.007801 481.646787 47.13801 C 478.870746 48.268218 476.490537 49.721343 474.500954 51.507801 C 472.516579 53.289051 470.922829 55.299468 469.73012 57.533843 C 468.532204 59.76301 467.933245 62.01301 467.933245 64.268219 C 467.933245 68.466135 469.875954 71.804677 473.756162 74.289052 C 477.365537 76.591136 480.797829 77.742178 484.047829 77.742178 C 487.250954 77.742178 490.094704 76.669261 492.57908 74.523427 C 495.063455 72.382802 496.959288 69.627594 498.26658 66.26301 C 499.573872 62.903635 500.230122 59.57551 500.230122 56.278635 C 500.230122 54.023427 499.959288 51.945301 499.417622 50.049468 Z M 503.282205 -1.132826 L 537.67804 -15.554701 L 542.688457 62.643219 L 570.990541 47.13801 L 600.370751 51.539051 L 562.053041 80.924469 L 598.136376 108.14322 L 599.761376 135.289055 L 546.547832 97.039053 L 548.24054 130.278638 L 516.011372 130.888013 L 509.917622 13.283841 L 499.964497 15.518217 Z M 644.995753 74.559886 L 661.313462 94.263012 C 660.00617 98.054678 656.902003 101.528637 652.00617 104.690095 C 647.105128 107.846345 641.287419 110.341137 634.537419 112.169262 C 627.787419 113.997387 621.053043 114.908846 614.329085 114.908846 C 608.370751 114.908846 603.053043 114.122387 598.381167 112.539054 C 593.709292 110.960929 590.110334 108.570304 587.584292 105.367179 C 583.204083 99.856762 581.016583 92.815095 581.016583 84.242178 C 581.016583 77.471344 582.24575 70.799469 584.704084 64.23176 C 587.167625 57.66926 589.771792 53.07551 592.527001 50.455718 C 595.818667 47.341135 599.396792 44.747384 603.256168 42.669259 C 607.115543 40.591134 611.120751 39.039051 615.277001 37.997384 C 619.428043 36.960926 623.693669 36.440092 628.073877 36.440092 C 633.803044 36.440092 639.256169 37.356759 644.422836 39.184884 C 649.589503 41.013009 654.115545 43.664051 657.995753 47.13801 L 620.829085 91.48697 C 624.120752 91.48697 627.245752 90.79947 630.204085 89.419261 C 633.162419 88.044261 635.881169 86.08072 638.360336 83.528636 C 640.844711 80.981761 643.058253 77.986969 644.995753 74.559886 Z M 626.245752 58.783843 C 624.03221 57.653635 621.777002 57.091135 619.474918 57.091135 C 617.037418 57.091135 614.678043 57.585927 612.396793 58.580718 C 610.120751 59.57551 608.506168 60.747385 607.558251 62.101552 C 604.756168 65.710927 603.360334 69.684886 603.360334 74.018219 C 603.360334 75.596344 603.516584 77.106761 603.834293 78.554678 C 604.146793 79.997386 604.688459 81.981761 605.459293 84.513011 Z M 591.443667 9.966133 L 627.53221 -10.002618 L 643.032211 13.825508 L 599.230126 22.153633 Z M 694.360338 45.716134 C 691.881171 46.033843 689.428046 46.820301 687.016588 48.085926 C 684.599921 49.351551 682.537421 50.841135 680.818671 52.554676 C 679.105129 54.268218 677.761379 56.153635 676.792629 58.205718 C 675.823879 60.26301 675.334296 62.283844 675.334296 64.268219 C 675.334296 68.377594 677.277004 71.716136 681.157213 74.289052 C 684.589504 76.591136 688.063463 77.742178 691.584296 77.742178 C 692.26138 77.742178 693.188463 77.648428 694.360338 77.471344 L 694.360338 63.049469 C 693.141588 63.049469 692.058255 62.73176 691.110338 62.101552 C 689.756171 61.018218 689.079088 58.940093 689.079088 55.872385 C 689.079088 51.45051 690.839505 48.065093 694.360338 45.716134 Z M 693.750963 -20.023452 L 722.053048 -32.752619 L 723.745756 58.91926 C 724.105131 61.268218 724.287423 63.929677 724.287423 66.908844 C 724.287423 69.528636 724.198881 71.466136 724.016589 72.731761 L 724.829089 114.231762 L 694.360338 115.856762 L 694.360338 111.731762 C 689.396796 113.757804 684.386379 114.773429 679.329088 114.773429 C 675.448879 114.773429 671.803046 114.190096 668.396795 113.013012 C 664.990545 111.841137 662.042628 110.263012 659.563462 108.278637 C 655.542628 104.934887 652.407211 100.434887 650.152003 94.76822 C 647.891586 89.106761 646.766586 83.111969 646.766586 76.794261 C 646.766586 65.914052 649.902003 57.13801 656.178045 50.455718 C 661.594712 44.768218 667.178045 40.455718 672.933254 37.523426 C 678.688463 34.591134 684.568671 33.122384 690.568671 33.122384 C 692.240546 33.122384 693.506171 33.169259 694.360338 33.257801 Z M 778.662425 74.559886 L 794.980134 94.263012 C 793.667634 98.054678 790.568676 101.528637 785.667634 104.690095 C 780.7718 107.846345 774.948883 110.341137 768.198883 112.169262 C 761.454091 113.997387 754.714507 114.908846 747.990549 114.908846 C 742.032215 114.908846 736.719715 114.122387 732.04784 112.539054 C 727.375965 110.960929 723.777006 108.570304 721.245756 105.367179 C 716.870756 99.856762 714.678047 92.815095 714.678047 84.242178 C 714.678047 77.471344 715.912422 70.799469 718.370756 64.23176 C 720.829089 57.66926 723.438464 53.07551 726.188465 50.455718 C 729.48534 47.341135 733.063465 44.747384 736.92284 42.669259 C 740.782215 40.591134 744.787424 39.039051 748.938466 37.997384 C 753.089507 36.960926 757.355133 36.440092 761.735341 36.440092 C 767.469716 36.440092 772.917633 37.356759 778.0843 39.184884 C 783.256175 41.013009 787.777009 43.664051 791.662426 47.13801 L 754.490549 91.48697 C 757.787424 91.48697 760.912424 90.79947 763.870758 89.419261 C 766.823883 88.044261 769.542633 86.08072 772.027008 83.528636 C 774.511383 80.981761 776.719717 77.986969 778.662425 74.559886 Z M 759.907216 58.783843 C 757.693674 57.653635 755.438466 57.091135 753.136382 57.091135 C 750.698882 57.091135 748.339507 57.585927 746.063465 58.580718 C 743.782215 59.57551 742.167632 60.747385 741.219715 62.101552 C 738.42284 65.710927 737.021798 69.684886 737.021798 74.018219 C 737.021798 75.596344 737.183257 77.106761 737.495757 78.554678 C 737.813465 79.997386 738.355132 81.981761 739.120757 84.513011 Z M 831.615552 99.138012 L 815.230135 120.325513 L 780.292634 121.408846 L 814.146802 76.658844 L 775.891592 27.16405 L 812.99576 28.78905 L 831.615552 53.367176 L 850.167637 28.78905 L 887.334305 27.16405 L 849.084303 76.658844 L 882.933263 121.408846 L 847.933261 120.325513 Z M 831.615552 99.138012 " transform="matrix(0.75,0,0,0.75,11.839144,247.482432)"/></g></svg>